<?xml version="1.0" encoding="UTF-8"?>
<svg version="1.1" xmlns="http://www.w3.org/2000/svg" width="500" height="500">
<path d="M0 0 C1.4616156 -0.00956978 1.4616156 -0.00956978 2.95275879 -0.01933289 C4.00797729 -0.02044571 5.0631958 -0.02155853 6.15039062 -0.02270508 C7.23042358 -0.02603348 8.31045654 -0.02936188 9.42321777 -0.03279114 C11.70971245 -0.03786008 13.99621455 -0.04019947 16.28271484 -0.04003906 C19.79211517 -0.04222727 23.30120215 -0.06038825 26.81054688 -0.0793457 C29.02799371 -0.0822792 31.24544205 -0.08426429 33.46289062 -0.08520508 C34.51810913 -0.09239059 35.57332764 -0.09957611 36.66052246 -0.10697937 C38.12213806 -0.10236443 38.12213806 -0.10236443 39.61328125 -0.09765625 C40.47328735 -0.09908127 41.33329346 -0.10050629 42.21936035 -0.10197449 C44.30664062 0.14526367 44.30664062 0.14526367 46.30664062 2.14526367 C45.68015625 2.39920898 45.05367188 2.6531543 44.40820312 2.91479492 C43.5909375 3.25897461 42.77367187 3.6031543 41.93164062 3.95776367 C41.11953125 4.29420898 40.30742187 4.6306543 39.47070312 4.97729492 C37.00516604 6.08965449 37.00516604 6.08965449 35.30664062 9.14526367 C35.40676894 16.91886202 38.6818699 23.68886643 41.61914062 30.77026367 C42.15371556 32.08005848 42.68722627 33.3902881 43.21972656 34.70092773 C44.33440138 37.44164174 45.45368542 40.18040118 46.57666016 42.91772461 C49.16448391 49.23228558 51.71270982 55.56272287 54.25326538 61.89642334 C55.04791089 63.87354362 55.84753388 65.84859704 56.64770508 67.82348633 C57.12812256 69.0176416 57.60854004 70.21179688 58.10351562 71.44213867 C58.74305176 73.02526855 58.74305176 73.02526855 59.39550781 74.64038086 C60.30664062 77.14526367 60.30664062 77.14526367 60.30664062 79.14526367 C60.96664062 79.14526367 61.62664062 79.14526367 62.30664062 79.14526367 C62.63664062 77.88713867 62.96664062 76.62901367 63.30664062 75.33276367 C65.15841214 69.12492013 67.71784963 63.25467291 70.26171875 57.30786133 C72.61514959 51.80397393 74.84358907 46.27370241 76.94726562 40.66870117 C78.04571823 37.82156252 79.18458144 35.00270922 80.35351562 32.18432617 C80.89782227 30.8606604 80.89782227 30.8606604 81.453125 29.51025391 C82.17055334 27.76953785 82.89542098 26.03186285 83.62890625 24.29785156 C85.72362516 19.18866943 87.08903097 14.68826528 87.30664062 9.14526367 C85.13153654 5.88260755 84.1771411 5.40589958 80.68164062 3.95776367 C79.864375 3.61358398 79.04710937 3.2694043 78.20507812 2.91479492 C77.57859375 2.66084961 76.95210938 2.4069043 76.30664062 2.14526367 C79.43973158 0.05653637 80.13728535 -0.10418225 83.69873047 -0.09765625 C85.02558365 -0.10227119 85.02558365 -0.10227119 86.37924194 -0.10697937 C87.33239288 -0.09979385 88.28554382 -0.09260834 89.26757812 -0.08520508 C90.25029694 -0.08474686 91.23301575 -0.08428864 92.24551392 -0.08381653 C94.32514655 -0.08079462 96.40477692 -0.07291014 98.484375 -0.06054688 C101.66219134 -0.04234771 104.83971522 -0.04003686 108.01757812 -0.0402832 C110.03841397 -0.03536557 112.05924784 -0.02953619 114.08007812 -0.02270508 C115.50373184 -0.02103584 115.50373184 -0.02103584 116.95614624 -0.01933289 C117.84701935 -0.01295303 118.73789246 -0.00657318 119.65576172 0 C120.43503021 0.0038118 121.21429871 0.0076236 122.0171814 0.0115509 C124.51923407 0.1576799 126.86254926 0.6021754 129.30664062 1.14526367 C126.82848981 4.86248989 124.88515159 5.21800568 120.79101562 6.59448242 C114.37060654 10.60219061 111.26585197 17.78754021 108.55664062 24.58276367 C107.78725712 26.44197778 107.01482697 28.29993251 106.24023438 30.15698242 C105.56903564 31.77032471 105.56903564 31.77032471 104.88427734 33.41625977 C101.95094184 40.39605128 98.8529007 47.3059985 95.79473877 54.23168945 C89.65613154 68.14004414 83.59391595 82.07666073 77.68164062 96.08276367 C69.95467237 114.37034584 69.95467237 114.37034584 66.68164062 121.83276367 C66.23957275 122.85648071 66.23957275 122.85648071 65.78857422 123.90087891 C61.91216954 132.64947235 56.34428473 140.42190727 47.18164062 144.02026367 C34.78424984 148.22367085 18.67783068 147.31043821 6.30664062 143.14526367 C3.91210938 141.63354492 3.91210938 141.63354492 2.30664062 139.14526367 C1.75829931 135.94267663 1.79376737 132.82381361 1.86914062 129.58276367 C1.86205078 128.71973633 1.85496094 127.85670898 1.84765625 126.9675293 C1.91194896 120.60255072 1.91194896 120.60255072 3.83374023 118.37597656 C4.31979736 117.96984131 4.80585449 117.56370605 5.30664062 117.14526367 C6.38945312 118.28995117 6.38945312 118.28995117 7.49414062 119.45776367 C10.14591041 122.18934967 10.14591041 122.18934967 13.11914062 123.83276367 C13.84101563 124.26588867 14.56289063 124.69901367 15.30664062 125.14526367 C15.30664062 125.80526367 15.30664062 126.46526367 15.30664062 127.14526367 C27.36368417 128.72927959 27.36368417 128.72927959 38.30664062 124.14526367 C41.0677152 121.78827003 42.31751281 119.34161579 43.78710938 116.03979492 C44.22861328 115.05688477 44.67011719 114.07397461 45.125 113.0612793 C45.57681641 112.03711914 46.02863281 111.01295898 46.49414062 109.95776367 C46.95755859 108.92200195 47.42097656 107.88624023 47.8984375 106.8190918 C49.04065778 104.26381549 50.17644586 101.70587605 51.30664062 99.14526367 C50.1843224 97.85117988 50.1843224 97.85117988 47.41625977 97.42553711 C44.30664062 96.14526367 44.30664062 96.14526367 42.73022461 93.73217773 C42.34165283 92.71865234 41.95308105 91.70512695 41.55273438 90.66088867 C41.09737305 89.51281738 40.64201172 88.36474609 40.17285156 87.18188477 C39.94045776 86.56593445 39.70806396 85.94998413 39.46862793 85.31536865 C38.47896758 82.69247691 37.44120418 80.08946539 36.40646362 77.48410034 C35.86428324 76.11721681 35.32470978 74.74929661 34.78762817 73.38040161 C31.89127725 66.01455046 28.73449429 58.7680225 25.55664062 51.52026367 C22.25084343 43.9620631 18.97642278 36.3969633 15.86206055 28.75732422 C10.20158929 14.30894792 10.20158929 14.30894792 -1.69335938 5.14526367 C-2.47710937 4.95963867 -3.26085937 4.77401367 -4.06835938 4.58276367 C-4.87273437 4.36620117 -4.87273437 4.36620117 -5.69335938 4.14526367 C-6.02335937 3.15526367 -6.35335938 2.16526367 -6.69335938 1.14526367 C-4.26830997 -0.06726103 -2.70953143 0.01200943 0 0 Z " fill="#F05A2C" transform="translate(352.693359375,187.854736328125)"/>
<path d="M0 0 C0.75622147 -0.0049649 1.51244293 -0.00992981 2.2915802 -0.01504517 C4.80767717 -0.0297148 7.32371093 -0.03647979 9.83984375 -0.04199219 C11.58805341 -0.04774355 13.33626304 -0.05350129 15.08447266 -0.05926514 C18.75993138 -0.06979138 22.43536815 -0.07562213 26.11083984 -0.07910156 C30.80369182 -0.08456319 35.49625025 -0.10853398 40.18901062 -0.13707352 C43.80601826 -0.15577763 47.42295665 -0.16090981 51.04000854 -0.16243744 C52.76864207 -0.16545141 54.49727473 -0.1734372 56.2258606 -0.18662262 C72.88817212 -0.30455499 72.88817212 -0.30455499 80.77734375 3.16113281 C81.69644531 3.56332031 82.61554688 3.96550781 83.5625 4.37988281 C91.87217787 9.05496744 97.57414087 15.9915125 100.71484375 25.03613281 C101.09274149 26.4048009 101.45088061 27.77929315 101.77734375 29.16113281 C102.00421875 30.00675781 102.23109375 30.85238281 102.46484375 31.72363281 C103.83011522 42.3727503 101.42498261 53.55740711 94.77734375 62.16113281 C83.66385176 73.2746248 73.29942242 75.75791317 58.02734375 75.91113281 C56.64970381 75.9393871 55.27209738 75.96932713 53.89453125 76.00097656 C45.18769612 76.18304459 36.48745782 76.16113281 27.77734375 76.16113281 C27.44734375 94.31113281 27.11734375 112.46113281 26.77734375 131.16113281 C29.74734375 131.16113281 32.71734375 131.16113281 35.77734375 131.16113281 C36.43734375 131.49113281 37.09734375 131.82113281 37.77734375 132.16113281 C37.90234375 135.03613281 37.90234375 135.03613281 37.77734375 138.16113281 C35.77734375 140.16113281 35.77734375 140.16113281 33.91111755 140.3704071 C33.1546846 140.35121719 32.39825165 140.33202728 31.61889648 140.31225586 C30.7613829 140.29531174 29.90386932 140.27836761 29.02037048 140.26091003 C28.0932576 140.23185074 27.16614471 140.20279144 26.2109375 140.17285156 C25.26170914 140.1501973 24.31248077 140.12754303 23.33448792 140.10420227 C21.32613733 140.05419812 19.31790529 139.99922597 17.30981445 139.93969727 C14.22430765 139.84891127 11.13872866 139.77424766 8.05273438 139.70214844 C6.10544389 139.65166606 4.15817696 139.60026503 2.2109375 139.54785156 C1.28180038 139.52486496 0.35266327 139.50187836 -0.60462952 139.47819519 C-1.45899094 139.45179459 -2.31335236 139.42539398 -3.19360352 139.39819336 C-3.94924088 139.37661667 -4.70487823 139.35503998 -5.4834137 139.33280945 C-7.22265625 139.16113281 -7.22265625 139.16113281 -8.22265625 138.16113281 C-8.34765625 135.16113281 -8.34765625 135.16113281 -8.22265625 132.16113281 C-7.89265625 131.83113281 -7.56265625 131.50113281 -7.22265625 131.16113281 C-4.25265625 131.16113281 -1.28265625 131.16113281 1.77734375 131.16113281 C1.77734375 113.01113281 1.77734375 94.86113281 1.77734375 76.16113281 C-0.53265625 76.16113281 -2.84265625 76.16113281 -5.22265625 76.16113281 C-6.21265625 75.83113281 -7.20265625 75.50113281 -8.22265625 75.16113281 C-9.03515625 73.22363281 -9.03515625 73.22363281 -9.22265625 71.16113281 C-7.22265625 69.16113281 -7.22265625 69.16113281 -4.83984375 68.96582031 C-3.93492188 68.98902344 -3.03 69.01222656 -2.09765625 69.03613281 C-1.18757813 69.05417969 -0.2775 69.07222656 0.66015625 69.09082031 C1.35882813 69.11402344 2.0575 69.13722656 2.77734375 69.16113281 C2.61886963 67.93338135 2.46039551 66.70562988 2.29711914 65.44067383 C1.64301364 59.52836417 1.55019536 53.63201763 1.4609375 47.68847656 C1.4401564 46.52482071 1.41937531 45.36116486 1.39796448 44.1622467 C1.33300066 40.47443082 1.27383307 36.78654862 1.21484375 33.09863281 C1.17160788 30.58625638 1.12799204 28.07388647 1.08398438 25.56152344 C0.97737436 19.42812836 0.87551293 13.29466849 0.77734375 7.16113281 C-2.19265625 6.83113281 -5.16265625 6.50113281 -8.22265625 6.16113281 C-8.26537725 4.49501376 -8.26329457 2.82730396 -8.22265625 1.16113281 C-6.28856285 -0.77296059 -2.6378416 0.00408993 0 0 Z M26.77734375 7.16113281 C26.68338318 9.0941978 26.65990858 11.03072119 26.66381836 12.96606445 C26.66389389 14.20727554 26.66396942 15.44848663 26.66404724 16.72731018 C26.66915464 18.09197021 26.67437065 19.45662983 26.6796875 20.82128906 C26.68155175 22.20991465 26.68297562 23.59854088 26.68397522 24.98716736 C26.68779988 28.64834396 26.69762972 32.30948111 26.7086792 35.97064209 C26.71889443 39.70405544 26.72347308 43.43747515 26.72851562 47.17089844 C26.73925204 54.50099458 26.75632784 61.83105818 26.77734375 69.16113281 C30.40218548 69.24951042 34.02674392 69.30197987 37.65234375 69.34863281 C38.66554688 69.37376953 39.67875 69.39890625 40.72265625 69.42480469 C52.96010252 69.54247244 61.55119906 66.24144985 70.77734375 58.16113281 C76.37650744 52.01970778 78.64705574 45.35624854 78.77734375 37.16113281 C78.03674933 28.42486166 74.91864214 20.66057104 68.27734375 14.78613281 C58.47862157 7.14144008 47.91462536 5.97296918 35.83984375 6.03613281 C35.07349609 6.03226563 34.30714844 6.02839844 33.51757812 6.02441406 C29.84748929 5.68433749 29.84748929 5.68433749 26.77734375 7.16113281 Z " fill="#F6592B" transform="translate(35.22265625,183.8388671875)"/>
<path d="M0 0 C0.75622147 -0.0049649 1.51244293 -0.00992981 2.2915802 -0.01504517 C4.80767717 -0.0297148 7.32371093 -0.03647979 9.83984375 -0.04199219 C11.58805341 -0.04774355 13.33626304 -0.05350129 15.08447266 -0.05926514 C18.75993138 -0.06979138 22.43536815 -0.07562213 26.11083984 -0.07910156 C30.80369182 -0.08456319 35.49625025 -0.10853398 40.18901062 -0.13707352 C43.80601826 -0.15577763 47.42295665 -0.16090981 51.04000854 -0.16243744 C52.76864207 -0.16545141 54.49727473 -0.1734372 56.2258606 -0.18662262 C72.88817212 -0.30455499 72.88817212 -0.30455499 80.77734375 3.16113281 C81.69644531 3.56332031 82.61554688 3.96550781 83.5625 4.37988281 C91.87217787 9.05496744 97.57414087 15.9915125 100.71484375 25.03613281 C101.09274149 26.4048009 101.45088061 27.77929315 101.77734375 29.16113281 C102.00421875 30.00675781 102.23109375 30.85238281 102.46484375 31.72363281 C103.83011522 42.3727503 101.42498261 53.55740711 94.77734375 62.16113281 C83.66385176 73.2746248 73.29942242 75.75791317 58.02734375 75.91113281 C56.64970381 75.9393871 55.27209738 75.96932713 53.89453125 76.00097656 C45.18769612 76.18304459 36.48745782 76.16113281 27.77734375 76.16113281 C27.44734375 94.31113281 27.11734375 112.46113281 26.77734375 131.16113281 C29.74734375 131.16113281 32.71734375 131.16113281 35.77734375 131.16113281 C36.43734375 131.49113281 37.09734375 131.82113281 37.77734375 132.16113281 C37.90234375 135.03613281 37.90234375 135.03613281 37.77734375 138.16113281 C35.77734375 140.16113281 35.77734375 140.16113281 33.91111755 140.3704071 C33.1546846 140.35121719 32.39825165 140.33202728 31.61889648 140.31225586 C30.7613829 140.29531174 29.90386932 140.27836761 29.02037048 140.26091003 C28.0932576 140.23185074 27.16614471 140.20279144 26.2109375 140.17285156 C25.26170914 140.1501973 24.31248077 140.12754303 23.33448792 140.10420227 C21.32613733 140.05419812 19.31790529 139.99922597 17.30981445 139.93969727 C14.22430765 139.84891127 11.13872866 139.77424766 8.05273438 139.70214844 C6.10544389 139.65166606 4.15817696 139.60026503 2.2109375 139.54785156 C1.28180038 139.52486496 0.35266327 139.50187836 -0.60462952 139.47819519 C-1.45899094 139.45179459 -2.31335236 139.42539398 -3.19360352 139.39819336 C-3.94924088 139.37661667 -4.70487823 139.35503998 -5.4834137 139.33280945 C-7.22265625 139.16113281 -7.22265625 139.16113281 -8.22265625 138.16113281 C-8.34765625 135.16113281 -8.34765625 135.16113281 -8.22265625 132.16113281 C-7.22265625 131.16113281 -7.22265625 131.16113281 -5.15625 131.06347656 C-3.92068359 131.08087891 -3.92068359 131.08087891 -2.66015625 131.09863281 C-1.83386719 131.10765625 -1.00757813 131.11667969 -0.15625 131.12597656 C0.48183594 131.13757813 1.11992188 131.14917969 1.77734375 131.16113281 C1.77734375 129.51113281 1.77734375 127.86113281 1.77734375 126.16113281 C2.43734375 126.16113281 3.09734375 126.16113281 3.77734375 126.16113281 C3.77734375 128.47113281 3.77734375 130.78113281 3.77734375 133.16113281 C0.80734375 133.49113281 -2.16265625 133.82113281 -5.22265625 134.16113281 C-4.89265625 135.15113281 -4.56265625 136.14113281 -4.22265625 137.16113281 C5.01734375 136.83113281 14.25734375 136.50113281 23.77734375 136.16113281 C23.44734375 116.03113281 23.11734375 95.90113281 22.77734375 75.16113281 C24.75734375 74.66613281 24.75734375 74.66613281 26.77734375 74.16113281 C26.77734375 72.51113281 26.77734375 70.86113281 26.77734375 69.16113281 C27.42171387 69.14655029 28.06608398 69.13196777 28.72998047 69.11694336 C31.70464574 69.04157807 34.6782947 68.94521651 37.65234375 68.84863281 C38.66554687 68.82607422 39.67875 68.80351562 40.72265625 68.78027344 C52.17718375 68.37642792 61.00627507 65.73260596 69.77734375 58.16113281 C75.37025656 52.00499928 77.64698161 45.36091129 77.77734375 37.16113281 C77.11560334 29.35504692 74.66353161 21.90036399 68.91796875 16.37207031 C56.38260974 6.50897776 43.4831068 7.16113281 27.77734375 7.16113281 C27.44734375 27.29113281 27.11734375 47.42113281 26.77734375 68.16113281 C26.44734375 68.16113281 26.11734375 68.16113281 25.77734375 68.16113281 C25.77734375 47.04113281 25.77734375 25.92113281 25.77734375 4.16113281 C29.40734375 3.83113281 33.03734375 3.50113281 36.77734375 3.16113281 C25.55734375 3.16113281 14.33734375 3.16113281 2.77734375 3.16113281 C2.77734375 3.82113281 2.77734375 4.48113281 2.77734375 5.16113281 C0.37188737 6.363861 -1.17262578 6.26184753 -3.84765625 6.22363281 C-5.07355469 6.21009766 -5.07355469 6.21009766 -6.32421875 6.19628906 C-7.26394531 6.17888672 -7.26394531 6.17888672 -8.22265625 6.16113281 C-8.26537725 4.49501376 -8.26329457 2.82730396 -8.22265625 1.16113281 C-6.28856285 -0.77296059 -2.6378416 0.00408993 0 0 Z " fill="#F95A2A" transform="translate(35.22265625,183.8388671875)"/>
<path d="M0 0 C8.48683401 7.33449325 12.33552188 16.10294188 13.37890625 27.16796875 C13.78165096 38.87354884 11.39796167 48.90842117 3.84375 58.0078125 C2.02342441 59.85208974 0.22546182 61.38529978 -1.9375 62.8125 C-2.5975 62.8125 -3.2575 62.8125 -3.9375 62.8125 C-3.9375 63.4725 -3.9375 64.1325 -3.9375 64.8125 C-17.49500307 69.24590246 -28.45737389 70.73305167 -41.9375 64.8125 C-50.70018754 59.57419919 -55.73237767 52.62600432 -59.3125 43.1875 C-61.74462446 30.85136357 -60.64216787 18.16825603 -53.75 7.5625 C-47.7519015 -0.46436712 -40.6909531 -4.57254382 -31.0625 -6.875 C-19.87922424 -7.99332758 -9.37701987 -6.78807836 0 0 Z M-40.375 13.25 C-45.31822763 19.3198892 -45.8585077 26.21936529 -45.9375 33.8125 C-44.99941462 41.64290709 -41.87717904 47.67140941 -35.75390625 52.5546875 C-30.58457486 56.13431053 -25.01980429 56.44348735 -18.9375 55.8125 C-11.93134735 54.50208997 -7.91029532 50.57305321 -3.9375 44.8125 C-0.13768737 36.69471846 -0.21197311 27.25043255 -2.9375 18.8125 C-5.81192464 13.4908098 -9.53930533 9.62405972 -14.9375 6.8125 C-17.86758319 5.97692277 -17.86758319 5.97692277 -20.9375 5.8125 C-22.030625 5.709375 -23.12375 5.60625 -24.25 5.5 C-30.77674285 6.0531138 -35.97310414 8.33276023 -40.375 13.25 Z " fill="#010101" transform="translate(200.9375,188.1875)"/>
<path d="M0 0 C6.36357352 5.48041598 9.74249539 11.74619702 11 20 C-1.57577628 20.27563345 -1.57577628 20.27563345 -4.984375 17.22265625 C-5.90406547 15.79403594 -6.79802428 14.3484863 -7.6640625 12.88671875 C-9.22630964 10.68038726 -10.18113015 10.13144587 -12.75 9.375 C-18.12152245 8.51926802 -24.16903952 9.08102679 -28.74609375 12.18359375 C-30.31108484 13.60546336 -30.31108484 13.60546336 -32 16 C-32 16.66 -32 17.32 -32 18 C-32.66 18 -33.32 18 -34 18 C-35.70294535 27.14646453 -36.4956001 36.60821314 -32 45 C-28.91595828 48.53601335 -25.74390378 50.66114973 -21 51 C-15.39318579 51.3559882 -11.79391141 51.26857596 -7 48 C-6.46375 46.96875 -5.9275 45.9375 -5.375 44.875 C-3 42 -3 42 -0.15625 41.35546875 C8.21590909 40.60795455 8.21590909 40.60795455 11 42 C9.09571418 49.83477594 5.79442031 55.76002065 -1 60.3515625 C-9.04632889 64.46347322 -19.18086571 65.15666557 -27.8671875 62.80078125 C-33.06620685 60.84876849 -38.35748543 58.29541812 -42 54 C-42 53.34 -42 52.68 -42 52 C-42.66 52 -43.32 52 -44 52 C-49.75289897 38.66560203 -51.07579471 26.73935257 -46.20703125 12.68359375 C-44.69007426 9.3109418 -42.91623392 7.26008129 -40 5 C-39.443125 4.319375 -38.88625 3.63875 -38.3125 2.9375 C-28.78241636 -5.04716467 -10.87562532 -6.03978454 0 0 Z " fill="#010101" transform="translate(338,186)"/>
<path d="M0 0 C0.99 0.33 1.98 0.66 3 1 C3 1.66 3 2.32 3 3 C3.5775 3.2475 4.155 3.495 4.75 3.75 C7.3002997 5.16683317 9.01785701 6.87627537 11 9 C9.57791918 13.86187839 7.51050027 17.87461761 4.9375 22.1875 C2.11129079 26.91890802 2.11129079 26.91890802 0 32 C-0.66 32 -1.32 32 -2 32 C-2 33.32 -2 34.64 -2 36 C-3.31129922 37.35500919 -4.64691687 38.68671343 -6 40 C-7.25436187 42.63222962 -7.25436187 42.63222962 -8 45 C-8.66 45 -9.32 45 -10 45 C-10 46.32 -10 47.64 -10 49 C-10.66 49 -11.32 49 -12 49 C-12.144375 49.804375 -12.28875 50.60875 -12.4375 51.4375 C-13 54 -13 54 -14 55 C-5.09 55 3.82 55 13 55 C13 59.42001501 12.15107686 60.9856155 10 64.75 C9.443125 65.73484375 8.88625 66.7196875 8.3125 67.734375 C7.879375 68.48203125 7.44625 69.2296875 7 70 C1.09196776 70.16774673 -4.81619979 70.3282928 -10.72460938 70.48217773 C-12.73442852 70.5355372 -14.74419649 70.59086175 -16.75390625 70.64819336 C-19.64311694 70.73027321 -22.53243811 70.80527752 -25.421875 70.87890625 C-26.31992859 70.90594131 -27.21798218 70.93297638 -28.14324951 70.96083069 C-28.98381897 70.98092697 -29.82438843 71.00102325 -30.69042969 71.02172852 C-31.42767273 71.04171402 -32.16491577 71.06169952 -32.92449951 71.08229065 C-35.07647145 70.99696802 -36.93529165 70.59489159 -39 70 C-38.41640244 66.13990668 -37.28579206 63.38333805 -35.296875 60.03515625 C-34.73484375 59.08092773 -34.1728125 58.12669922 -33.59375 57.14355469 C-32.9853125 56.12680664 -32.376875 55.11005859 -31.75 54.0625 C-31.12609375 53.00579102 -30.5021875 51.94908203 -29.859375 50.86035156 C-27.30571954 46.53947385 -24.73364135 42.22968738 -22.16210938 37.91943359 C-20.43931641 35.03085873 -18.71853568 32.14110965 -17 29.25 C-16.45923828 28.34032471 -15.91847656 27.43064941 -15.36132812 26.4934082 C-11.6021159 20.12656514 -8.12285706 13.70646353 -5 7 C-4.67 6.34 -4.34 5.68 -4 5 C-3.34 5 -2.68 5 -2 5 C-1.34 3.35 -0.68 1.7 0 0 Z " fill="#12110E" transform="translate(247,183)"/>
<path d="M0 0 C3.63 0 7.26 0 11 0 C11.33 1.32 11.66 2.64 12 4 C12.66 4.33 13.32 4.66 14 5 C14.7043457 6.71264648 14.7043457 6.71264648 15.36328125 8.93359375 C16.99642285 14.1207968 19.04479916 19.06803096 21.1875 24.0625 C21.73954102 25.3609082 21.73954102 25.3609082 22.30273438 26.68554688 C23.19872592 28.79170883 24.09784655 30.89647192 25 33 C25 32.01 25 31.02 25 30 C25.66 30 26.32 30 27 30 C27.11786865 29.29786377 27.2357373 28.59572754 27.35717773 27.87231445 C28.05371304 24.75999471 29.08780242 21.99846239 30.28515625 19.04296875 C30.95708008 17.37524414 30.95708008 17.37524414 31.64257812 15.67382812 C32.11115234 14.52333984 32.57972656 13.37285156 33.0625 12.1875 C33.53494141 11.01767578 34.00738281 9.84785156 34.49414062 8.64257812 C35.65888716 5.76012457 36.82763234 2.87936035 38 0 C41.3 0 44.6 0 48 0 C48 0.99 48 1.98 48 3 C47.01 3.66 46.02 4.32 45 5 C44.7332384 7.76628915 44.65195811 10.30619631 44.70703125 13.0703125 C44.71339851 14.26465408 44.71339851 14.26465408 44.71989441 15.48312378 C44.73671166 18.03075729 44.77436821 20.57760489 44.8125 23.125 C44.82754295 24.85024901 44.84123204 26.57551039 44.85351562 28.30078125 C44.88662499 32.53415782 44.93842715 36.76694559 45 41 C46.32 41.33 47.64 41.66 49 42 C48.67 42.99 48.34 43.98 48 45 C43.38 45 38.76 45 34 45 C34 44.01 34 43.02 34 42 C35.32 42 36.64 42 38 42 C37.67 32.76 37.34 23.52 37 14 C35.576875 17.465 34.15375 20.93 32.6875 24.5 C32.0236731 26.11358398 32.0236731 26.11358398 31.34643555 27.75976562 C30.80950073 29.06977539 30.80950073 29.06977539 30.26171875 30.40625 C29.87161621 31.355 29.48151367 32.30375 29.07958984 33.28125 C28.11081771 35.72092583 27.24412934 38.17340627 26.39453125 40.65625 C25.93433594 41.7596875 25.47414063 42.863125 25 44 C23.515 44.495 23.515 44.495 22 45 C16.98890311 35.62828514 13.07355625 25.80415234 9 16 C8.67 24.58 8.34 33.16 8 42 C9.32 42 10.64 42 12 42 C11.67 42.99 11.34 43.98 11 45 C7.37 45 3.74 45 0 45 C0 44.01 0 43.02 0 42 C1.65 42 3.3 42 5 42 C4.96447021 41.06728271 4.92894043 40.13456543 4.89233398 39.17358398 C4.76250165 35.68675144 4.6383037 32.1998099 4.51782227 28.71264648 C4.4647137 27.20833433 4.40941226 25.70409783 4.35180664 24.19995117 C4.26901757 22.02799795 4.19432662 19.85588773 4.12109375 17.68359375 C4.0739624 16.37962646 4.02683105 15.07565918 3.97827148 13.73217773 C3.99995061 10.00848341 4.38454281 6.66165946 5 3 C3.35 3 1.7 3 0 3 C0 2.01 0 1.02 0 0 Z " fill="#030303" transform="translate(71,266)"/>
<path d="M0 0 C0.99 0.495 0.99 0.495 2 1 C-0.9905167 4.33557632 -3.93184627 6.15083921 -8 8 C-8 8.99 -8 9.98 -8 11 C-1.32441913 12.61832263 4.53134592 12.36354668 11 10 C11.495 9.484375 11.99 8.96875 12.5 8.4375 C14.92594585 6.11263523 17.76651419 6.30504583 21 6 C21 5.01 21 4.02 21 3 C22.65 3 24.3 3 26 3 C20.12816161 9.40564188 12.23275943 14.35541372 3.48999023 15.43237305 C2.27512939 15.45855713 1.06026855 15.48474121 -0.19140625 15.51171875 C-0.85857162 15.52966995 -1.525737 15.54762115 -2.21311951 15.56611633 C-4.32951506 15.61971998 -6.44570442 15.65380001 -8.5625 15.6875 C-9.95380651 15.7207538 -11.3450839 15.75525057 -12.73632812 15.79101562 C-21.49399168 15.9994875 -30.23670961 16 -39 16 C-39.33 34.15 -39.66 52.3 -40 71 C-37.03 71 -34.06 71 -31 71 C-30.01 71.495 -30.01 71.495 -29 72 C-28.875 74.875 -28.875 74.875 -29 78 C-31 80 -31 80 -32.8662262 80.20927429 C-33.62265915 80.19008438 -34.3790921 80.17089447 -35.15844727 80.15112305 C-36.01596085 80.13417892 -36.87347443 80.1172348 -37.75697327 80.09977722 C-38.68408615 80.07071793 -39.61119904 80.04165863 -40.56640625 80.01171875 C-41.51563461 79.98906448 -42.46486298 79.96641022 -43.44285583 79.94306946 C-45.45120642 79.8930653 -47.45943846 79.83809315 -49.4675293 79.77856445 C-52.5530361 79.68777846 -55.63861509 79.61311485 -58.72460938 79.54101562 C-60.67189986 79.49053325 -62.61916679 79.43913222 -64.56640625 79.38671875 C-65.96011192 79.35223885 -65.96011192 79.35223885 -67.38197327 79.31706238 C-68.23633469 79.29066177 -69.09069611 79.26426117 -69.97094727 79.23706055 C-70.72658463 79.21548386 -71.48222198 79.19390717 -72.26075745 79.17167664 C-74 79 -74 79 -75 78 C-75.125 75 -75.125 75 -75 72 C-74 71 -74 71 -71.93359375 70.90234375 C-71.10988281 70.91394531 -70.28617188 70.92554688 -69.4375 70.9375 C-68.19806641 70.95103516 -68.19806641 70.95103516 -66.93359375 70.96484375 C-65.97646484 70.98224609 -65.97646484 70.98224609 -65 71 C-65 69.35 -65 67.7 -65 66 C-64.34 66 -63.68 66 -63 66 C-63 68.31 -63 70.62 -63 73 C-67.455 73.495 -67.455 73.495 -72 74 C-71.67 74.99 -71.34 75.98 -71 77 C-61.76 76.67 -52.52 76.34 -43 76 C-43.33 55.87 -43.66 35.74 -44 15 C-42.68 14.67 -41.36 14.34 -40 14 C-40 12.35 -40 10.7 -40 9 C-39.35562988 8.98541748 -38.71125977 8.97083496 -38.04736328 8.95581055 C-35.07269801 8.88044526 -32.09904905 8.7840837 -29.125 8.6875 C-28.11179688 8.66494141 -27.09859375 8.64238281 -26.0546875 8.61914062 C-15.89565704 8.26096968 -7.98438088 6.42221941 0 0 Z " fill="#DE6542" transform="translate(102,244)"/>
<path d="M0 0 C0.33 0.66 0.66 1.32 1 2 C2.051875 2.12375 3.10375 2.2475 4.1875 2.375 C9.37414312 3.22526936 12.37135566 4.73275564 15.484375 9.06640625 C19.57731706 16.22905486 20.41555031 23.41843138 18.3828125 31.43359375 C17.26278209 34.58007093 15.85233975 37.22149038 14 40 C13.34 40 12.68 40 12 40 C12 40.66 12 41.32 12 42 C6.4714418 45.4858028 1.30239296 45.57263436 -5.125 45.75 C-6.11371094 45.79253906 -7.10242188 45.83507812 -8.12109375 45.87890625 C-16.06116443 46.16900356 -16.06116443 46.16900356 -20 45 C-19.02149805 43.97895449 -18.02019573 42.9793879 -17 42 C-16.67 42 -16.34 42 -16 42 C-15.67 29.46 -15.34 16.92 -15 4 C-16.65 3.67 -18.3 3.34 -20 3 C-19.67 2.34 -19.34 1.68 -19 1 C-12.73 0.67 -6.46 0.34 0 0 Z M-8 4 C-8 16.87 -8 29.74 -8 43 C-0.17859227 43.21886988 -0.17859227 43.21886988 6 40 C10.87762064 34.9868899 12.11336281 30.09192286 12.4375 23.25 C12.31962608 16.93981588 10.75288892 12.09320639 7 7 C1.83900224 3.01195628 -0.87657747 4 -8 4 Z " fill="#010101" transform="translate(321,265)"/>
<path d="M0 0 C3.98419846 -1.02256044 7.04842701 -1.24576702 11 0 C14.84041945 3.71653495 17.32195398 8.60512618 19.93310547 13.21630859 C21.39845748 15.66616255 23.20192191 17.78517109 25 20 C26.98 22.97 28.96 25.94 31 29 C31.33 20.42 31.66 11.84 32 3 C30.68 3 29.36 3 28 3 C28 2.01 28 1.02 28 0 C31.63 0 35.26 0 39 0 C39 0.99 39 1.98 39 3 C37.68 3 36.36 3 35 3 C35 16.53 35 30.06 35 44 C34.01 44.495 34.01 44.495 33 45 C32.01 44.505 32.01 44.505 31 44 C31 43.34 31 42.68 31 42 C30.34 42 29.68 42 29 42 C27.89013672 40.5222168 27.89013672 40.5222168 26.6796875 38.44921875 C26.23020752 37.69253906 25.78072754 36.93585938 25.31762695 36.15625 C24.84156006 35.3415625 24.36549316 34.526875 23.875 33.6875 C19.99775634 27.1709085 15.99265982 20.98044803 11.36328125 14.96875 C10 13 10 13 10 11 C9.01 11.495 9.01 11.495 8 12 C7.67 21.9 7.34 31.8 7 42 C8.32 42 9.64 42 11 42 C10.67 42.99 10.34 43.98 10 45 C7.03 45 4.06 45 1 45 C0.505 43.515 0.505 43.515 0 42 C1.32 42 2.64 42 4 42 C4 29.13 4 16.26 4 3 C2.68 3 1.36 3 0 3 C0 2.01 0 1.02 0 0 Z " fill="#040404" transform="translate(227,266)"/>
<path d="M0 0 C3.96 0 7.92 0 12 0 C12.70781727 3.53908637 13.11769824 5.88705191 13.02172852 9.33129883 C12.99158409 10.56200859 12.99158409 10.56200859 12.96083069 11.81758118 C12.92027809 13.12410896 12.92027809 13.12410896 12.87890625 14.45703125 C12.85529526 15.35999435 12.83168427 16.26295746 12.80735779 17.19328308 C12.73101754 20.06652721 12.64686623 22.93948144 12.5625 25.8125 C12.50924962 27.76495995 12.45650944 29.71743389 12.40429688 31.66992188 C12.27544265 36.44679684 12.13958443 41.22342703 12 46 C8.04 46 4.08 46 0 46 C0 30.82 0 15.64 0 0 Z " fill="#010101" transform="translate(267,202)"/>
<path d="M0 0 C1.81591797 0.55200195 1.81591797 0.55200195 4 2 C5.16882467 4.41236274 6.08457483 6.64840401 6.9453125 9.16796875 C7.2012619 9.88100662 7.4572113 10.59404449 7.72091675 11.32868958 C8.53593355 13.61037223 9.33036413 15.89865027 10.125 18.1875 C10.66668848 19.70944065 11.2096438 21.23093105 11.75390625 22.75195312 C14.01852026 29.12220483 16.19729846 35.48119862 18 42 C19.32 42 20.64 42 22 42 C22 42.66 22 43.32 22 44 C16.94997778 45.03590199 12.12583611 45.10251672 7 45 C7 44.01 7 43.02 7 42 C8.485 41.505 8.485 41.505 10 41 C9.505 39.9275 9.01 38.855 8.5 37.75 C7.11346089 34.74583192 7 33.54065105 7 30 C2.05 30 -2.9 30 -8 30 C-8.474375 31.60875 -8.94875 33.2175 -9.4375 34.875 C-10.875 39.75 -10.875 39.75 -12 42 C-10.68 42 -9.36 42 -8 42 C-8.33 42.99 -8.66 43.98 -9 45 C-11.97 45 -14.94 45 -18 45 C-18.33 43.68 -18.66 42.36 -19 41 C-18.01 41.33 -17.02 41.66 -16 42 C-15.61972656 40.83210938 -15.23945313 39.66421875 -14.84765625 38.4609375 C-12.74425982 32.15445353 -10.46745798 25.91130628 -8.18383789 19.66845703 C-7.43193122 17.60975281 -6.68569285 15.54904531 -5.93945312 13.48828125 C-5.45868029 12.17174825 -4.97757267 10.85533744 -4.49609375 9.5390625 C-4.06482178 8.35521973 -3.6335498 7.17137695 -3.18920898 5.95166016 C-2 3 -2 3 0 0 Z M-1 11 C-1.8394882 13.10171867 -2.67139656 15.20646625 -3.5 17.3125 C-3.9640625 18.48425781 -4.428125 19.65601563 -4.90625 20.86328125 C-6.16462513 23.91846448 -6.16462513 23.91846448 -6 27 C-2.37 27 1.26 27 5 27 C4.54625 25.288125 4.0925 23.57625 3.625 21.8125 C3.36976563 20.84957031 3.11453125 19.88664062 2.8515625 18.89453125 C2.05233704 16.17789793 1.0968638 13.60862825 0 11 C-0.33 11 -0.66 11 -1 11 Z " fill="#030303" transform="translate(172,266)"/>
<path d="M0 0 C0.75622147 -0.0049649 1.51244293 -0.00992981 2.2915802 -0.01504517 C4.80767717 -0.0297148 7.32371093 -0.03647979 9.83984375 -0.04199219 C11.58805341 -0.04774355 13.33626304 -0.05350129 15.08447266 -0.05926514 C18.75993138 -0.06979138 22.43536815 -0.07562213 26.11083984 -0.07910156 C30.80369182 -0.08456319 35.49625025 -0.10853398 40.18901062 -0.13707352 C43.80601826 -0.15577763 47.42295665 -0.16090981 51.04000854 -0.16243744 C52.76864207 -0.16545141 54.49727473 -0.1734372 56.2258606 -0.18662262 C72.88817212 -0.30455499 72.88817212 -0.30455499 80.77734375 3.16113281 C81.69644531 3.56332031 82.61554688 3.96550781 83.5625 4.37988281 C91.87217787 9.05496744 97.57414087 15.9915125 100.71484375 25.03613281 C101.09274149 26.4048009 101.45088061 27.77929315 101.77734375 29.16113281 C102.00421875 30.00675781 102.23109375 30.85238281 102.46484375 31.72363281 C103.9171252 43.0514281 100.75919498 52.5854421 94.77734375 62.16113281 C94.11734375 62.16113281 93.45734375 62.16113281 92.77734375 62.16113281 C93.74518234 60.18736247 94.72645342 58.24813545 95.83666992 56.35009766 C98.82357786 51.05940192 99.31252066 46.79346102 99.08984375 40.78613281 C99.08017578 39.98046875 99.07050781 39.17480469 99.06054688 38.34472656 C99.06321825 34.1169946 99.06321825 34.1169946 97.77734375 30.16113281 C97.67509383 28.76655757 97.59465448 27.37033049 97.52734375 25.97363281 C96.70131743 18.26816341 91.7650431 13.57110196 86.02734375 8.73535156 C78.75900727 3.65003975 70.66605566 2.02505919 61.9453125 2.06347656 C60.65302734 2.06669922 59.36074219 2.06992188 58.02929688 2.07324219 C56.67447849 2.08159616 55.31966078 2.09006109 53.96484375 2.09863281 C52.5904964 2.10365282 51.2161473 2.10821485 49.84179688 2.11230469 C46.48693451 2.12407613 43.13216154 2.14051998 39.77734375 2.16113281 C39.77734375 2.82113281 39.77734375 3.48113281 39.77734375 4.16113281 C40.5765625 4.21011719 41.37578125 4.25910156 42.19921875 4.30957031 C47.96815096 4.70229105 53.72899589 5.17416327 59.46484375 5.91113281 C60.43808594 6.02972656 61.41132812 6.14832031 62.4140625 6.27050781 C64.77734375 7.16113281 64.77734375 7.16113281 66.046875 9.61425781 C66.40845703 10.87496094 66.40845703 10.87496094 66.77734375 12.16113281 C67.27234375 13.15113281 67.27234375 13.15113281 67.77734375 14.16113281 C65.01645992 13.07351191 62.32954504 11.94618943 59.65234375 10.66113281 C49.34858196 6.32386556 38.94777201 7.16113281 27.77734375 7.16113281 C27.44734375 27.29113281 27.11734375 47.42113281 26.77734375 68.16113281 C26.44734375 68.16113281 26.11734375 68.16113281 25.77734375 68.16113281 C25.77734375 47.04113281 25.77734375 25.92113281 25.77734375 4.16113281 C29.40734375 3.83113281 33.03734375 3.50113281 36.77734375 3.16113281 C25.55734375 3.16113281 14.33734375 3.16113281 2.77734375 3.16113281 C2.77734375 3.82113281 2.77734375 4.48113281 2.77734375 5.16113281 C0.37188737 6.363861 -1.17262578 6.26184753 -3.84765625 6.22363281 C-5.07355469 6.21009766 -5.07355469 6.21009766 -6.32421875 6.19628906 C-7.26394531 6.17888672 -7.26394531 6.17888672 -8.22265625 6.16113281 C-8.26537725 4.49501376 -8.26329457 2.82730396 -8.22265625 1.16113281 C-6.28856285 -0.77296059 -2.6378416 0.00408993 0 0 Z " fill="#D06245" transform="translate(35.22265625,183.8388671875)"/>
<path d="M0 0 C4.95 0 9.9 0 15 0 C14.67 0.99 14.34 1.98 14 3 C12.68 3 11.36 3 10 3 C10.05329468 4.61225464 10.05329468 4.61225464 10.10766602 6.25708008 C10.23799486 10.24324573 10.36116905 14.22960587 10.48217773 18.21606445 C10.53556166 19.94171197 10.59088821 21.66730052 10.64819336 23.39282227 C10.7302051 25.87242927 10.80523843 28.35216407 10.87890625 30.83203125 C10.90594131 31.60400345 10.93297638 32.37597565 10.96083069 33.17134094 C11.05128101 36.41429423 11.03489186 38.89532441 10 42 C11.65 42 13.3 42 15 42 C15 42.66 15 43.32 15 44 C11.71480525 45.09506492 9.26336585 45.09960608 5.8125 45.0625 C4.18248047 45.04896484 4.18248047 45.04896484 2.51953125 45.03515625 C1.68808594 45.02355469 0.85664063 45.01195312 0 45 C0 44.01 0 43.02 0 42 C1.32 42 2.64 42 4 42 C4 29.13 4 16.26 4 3 C2.68 3 1.36 3 0 3 C0 2.01 0 1.02 0 0 Z " fill="#030303" transform="translate(369,267)"/>
<path d="M0 0 C0.66 0 1.32 0 2 0 C2.04254356 1.99954746 2.04080783 4.00041636 2 6 C1.67 6.33 1.34 6.66 1 7 C0.95936168 8.66617115 0.957279 10.33388095 1 12 C0.34 12 -0.32 12 -1 12 C-1.99 15.3 -2.98 18.6 -4 22 C-3.34 22.33 -2.68 22.66 -2 23 C-2.66 23 -3.32 23 -4 23 C-4.33 25.31 -4.66 27.62 -5 30 C-5.66 30 -6.32 30 -7 30 C-7.18175781 30.556875 -7.36351562 31.11375 -7.55078125 31.6875 C-10.53145795 40.73652876 -13.97970032 49.35556117 -18 58 C-18.66 58 -19.32 58 -20 58 C-19.95875 58.845625 -19.9175 59.69125 -19.875 60.5625 C-20.03661318 65.00686242 -21.00559615 69.01119229 -23 73 C-24.98 73 -26.96 73 -29 73 C-30.20949572 70.34803192 -31.41622343 67.69490876 -32.6171875 65.0390625 C-33.48481372 63.13224555 -34.36339093 61.23033349 -35.2578125 59.3359375 C-35.62648438 58.54445312 -35.99515625 57.75296875 -36.375 56.9375 C-36.71273438 56.22464844 -37.05046875 55.51179688 -37.3984375 54.77734375 C-37.59695313 54.19082031 -37.79546875 53.60429687 -38 53 C-37.67 52.34 -37.34 51.68 -37 51 C-36.34 51 -35.68 51 -35 51 C-33.82905995 53.7899439 -32.66309073 56.58178597 -31.5 59.375 C-31.16613281 60.1690625 -30.83226562 60.963125 -30.48828125 61.78125 C-30.17246094 62.54179687 -29.85664063 63.30234375 -29.53125 64.0859375 C-29.09135742 65.1385376 -29.09135742 65.1385376 -28.64257812 66.21240234 C-28 68 -28 68 -28 70 C-27.34 70 -26.68 70 -26 70 C-25.67 68.741875 -25.34 67.48375 -25 66.1875 C-23.14822849 59.97965645 -20.58879099 54.10940924 -18.04492188 48.16259766 C-15.69133837 42.65835323 -13.46555708 37.12633415 -11.35546875 31.5234375 C-10.26207616 28.68124698 -9.13714478 25.85895201 -7.98828125 23.0390625 C-7.62992187 22.15661865 -7.2715625 21.2741748 -6.90234375 20.36499023 C-6.19441025 18.62576382 -5.48239865 16.88818977 -4.765625 15.15258789 C-2.73408738 10.14893064 -1.18280114 5.27104712 0 0 Z " fill="#CD5B3C" transform="translate(441,197)"/>
<path d="M0 0 C0.66 0.33 1.32 0.66 2 1 C2.40729228 3.32156597 2.74438677 5.6568787 3 8 C3.66 8 4.32 8 5 8 C5 8.99 5 9.98 5 11 C7.64 11 10.28 11 13 11 C13 11.66 13 12.32 13 13 C13.66 13 14.32 13 15 13 C14.454267 17.22943072 12.87164496 20.70022835 11.109375 24.53125 C9.97415622 27.05751152 8.94724999 29.60875388 7.9375 32.1875 C6.47591685 35.90211647 4.78546819 39.42906363 3 43 C3 43.66 3 44.32 3 45 C-1.29168191 47.01961502 -4.19102477 48.2828809 -9 48 C-9.33 48.33 -9.66 48.66 -10 49 C-11.64340867 49.09854655 -13.2911461 49.12972411 -14.9375 49.125 C-15.83339844 49.12757813 -16.72929687 49.13015625 -17.65234375 49.1328125 C-20 49 -20 49 -22 48 C-22 47.34 -22 46.68 -22 46 C-22.94875 45.938125 -23.8975 45.87625 -24.875 45.8125 C-25.90625 45.544375 -26.9375 45.27625 -28 45 C-29.375 42.4375 -29.375 42.4375 -30 40 C-28.35 40.66 -26.7 41.32 -25 42 C-25 42.66 -25 43.32 -25 44 C-12.94295645 45.58401592 -12.94295645 45.58401592 -2 41 C0.76107458 38.64300636 2.01087218 36.19635211 3.48046875 32.89453125 C3.92197266 31.91162109 4.36347656 30.92871094 4.81835938 29.91601562 C5.27017578 28.89185547 5.72199219 27.86769531 6.1875 26.8125 C6.65091797 25.77673828 7.11433594 24.74097656 7.59179688 23.67382812 C8.73401716 21.11855182 9.86980523 18.56061238 11 16 C9.89745874 14.70078654 9.89745874 14.70078654 7.1875 14.5625 C2.81719786 12.42019503 2.26914234 9.8404376 0.6640625 5.41015625 C0 3 0 3 0 0 Z " fill="#C96B52" transform="translate(393,271)"/>
<path d="M0 0 C10.14483987 -0.06969267 20.28962223 -0.12290883 30.43465328 -0.15543652 C35.14605642 -0.17105285 39.85729504 -0.19221703 44.56860352 -0.22631836 C49.12032742 -0.25905618 53.67189366 -0.2768833 58.22372627 -0.28463173 C59.95515993 -0.29014945 61.68658554 -0.30092392 63.41795158 -0.31719017 C80.12204544 -0.46779995 80.12204544 -0.46779995 88 3 C88.91910156 3.4021875 89.83820313 3.804375 90.78515625 4.21875 C99.09483412 8.89383463 104.79679712 15.83037968 107.9375 24.875 C108.31539774 26.24366809 108.67353686 27.61816034 109 29 C109.226875 29.845625 109.45375 30.69125 109.6875 31.5625 C111.13978145 42.89029529 107.98185123 52.42430929 102 62 C101.34 62 100.68 62 100 62 C100.96783859 60.02622966 101.94910967 58.08700264 103.05932617 56.18896484 C106.04623411 50.8982691 106.53517691 46.63232821 106.3125 40.625 C106.30283203 39.81933594 106.29316406 39.01367188 106.28320312 38.18359375 C106.2858745 33.95586179 106.2858745 33.95586179 105 30 C104.89775008 28.60542476 104.81731073 27.20919768 104.75 25.8125 C103.92397368 18.1070306 98.98769935 13.40996915 93.25 8.57421875 C85.75377357 3.32946311 77.41989502 1.86916014 68.45581055 1.79467773 C67.71380905 1.78477814 66.97180756 1.77487854 66.20732117 1.76467896 C63.76715225 1.73321966 61.32696391 1.70836846 58.88671875 1.68359375 C57.18992115 1.66301076 55.49312852 1.64201394 53.79634094 1.62062073 C49.33958982 1.56553896 44.8827935 1.51606864 40.42596436 1.46777344 C35.87443031 1.4174567 31.32296156 1.36182383 26.77148438 1.30664062 C17.8477121 1.19922911 8.92388301 1.09774666 0 1 C0 0.67 0 0.34 0 0 Z " fill="#C5674B" transform="translate(28,184)"/>
<path d="M0 0 C1.65 0 3.3 0 5 0 C-0.94462126 6.48504138 -8.882976 11.40719242 -17.73217773 12.43237305 C-19.03614502 12.45855713 -20.3401123 12.48474121 -21.68359375 12.51171875 C-22.73414696 12.53864555 -22.73414696 12.53864555 -23.80592346 12.56611633 C-26.01638989 12.61977555 -28.22664612 12.65396932 -30.4375 12.6875 C-31.94729461 12.72071257 -33.45706163 12.75520581 -34.96679688 12.79101562 C-38.64432933 12.87547395 -42.32193591 12.9424955 -46 13 C-46 12.01 -46 11.02 -46 10 C-46.99 10 -47.98 10 -49 10 C-49 9.34 -49 8.68 -49 8 C-48.31035156 7.96261719 -47.62070313 7.92523438 -46.91015625 7.88671875 C-40.51353535 7.43921852 -34.96929752 6.34350199 -29 4 C-29.33 5.32 -29.66 6.64 -30 8 C-19.7950313 9.32082588 -19.7950313 9.32082588 -10 7 C-9.505 6.484375 -9.01 5.96875 -8.5 5.4375 C-6.07405415 3.11263523 -3.23348581 3.30504583 0 3 C0 2.01 0 1.02 0 0 Z " fill="#EB5D33" transform="translate(123,247)"/>
<path d="M0 0 C1.4616156 -0.00956978 1.4616156 -0.00956978 2.95275879 -0.01933289 C4.00797729 -0.02044571 5.0631958 -0.02155853 6.15039062 -0.02270508 C7.23042358 -0.02603348 8.31045654 -0.02936188 9.42321777 -0.03279114 C11.70971245 -0.03786008 13.99621455 -0.04019947 16.28271484 -0.04003906 C19.79211517 -0.04222727 23.30120215 -0.06038825 26.81054688 -0.0793457 C29.02799371 -0.0822792 31.24544205 -0.08426429 33.46289062 -0.08520508 C34.51810913 -0.09239059 35.57332764 -0.09957611 36.66052246 -0.10697937 C38.12213806 -0.10236443 38.12213806 -0.10236443 39.61328125 -0.09765625 C40.47328735 -0.09908127 41.33329346 -0.10050629 42.21936035 -0.10197449 C44.30664062 0.14526367 44.30664062 0.14526367 46.30664062 2.14526367 C45.68015625 2.39920898 45.05367188 2.6531543 44.40820312 2.91479492 C43.5909375 3.25897461 42.77367187 3.6031543 41.93164062 3.95776367 C41.11953125 4.29420898 40.30742187 4.6306543 39.47070312 4.97729492 C37.00516604 6.08965449 37.00516604 6.08965449 35.30664062 9.14526367 C35.28186703 11.89913994 35.28186703 11.89913994 35.68164062 14.83276367 C35.7925 15.82663086 35.90335937 16.82049805 36.01757812 17.84448242 C36.11296875 18.60374023 36.20835937 19.36299805 36.30664062 20.14526367 C35.31664062 20.14526367 34.32664062 20.14526367 33.30664062 20.14526367 C32.43429942 17.1504545 32.19834296 14.50950457 32.24414062 11.39526367 C32.25316406 10.59604492 32.2621875 9.79682617 32.27148438 8.97338867 C32.28308594 8.37010742 32.2946875 7.76682617 32.30664062 7.14526367 C32.96664062 6.81526367 33.62664062 6.48526367 34.30664062 6.14526367 C34.63664062 4.82526367 34.96664062 3.50526367 35.30664062 2.14526367 C24.08664062 2.14526367 12.86664063 2.14526367 1.30664062 2.14526367 C2.29664063 3.79526367 3.28664063 5.44526367 4.30664062 7.14526367 C2.65681313 6.72307551 1.01180397 6.28201943 -0.63085938 5.83276367 C-1.54738281 5.58913086 -2.46390625 5.34549805 -3.40820312 5.09448242 C-4.53935547 4.62461914 -4.53935547 4.62461914 -5.69335938 4.14526367 C-6.02335937 3.15526367 -6.35335938 2.16526367 -6.69335938 1.14526367 C-4.26830997 -0.06726103 -2.70953143 0.01200943 0 0 Z " fill="#CD694C" transform="translate(352.693359375,187.854736328125)"/>
<path d="M0 0 C2.5625 1.625 2.5625 1.625 4 4 C4.60024477 7.60146865 4.45562482 9.27859404 2.5 12.375 C-1.24099229 14.80664499 -3.57426418 14.49174842 -8 14 C-9.9375 13 -9.9375 13 -11 11 C-11.70958392 8.31810801 -12.25719352 5.77321705 -12 3 C-9.00355889 -1.24897276 -4.73129237 -0.76008127 0 0 Z " fill="#020202" transform="translate(277,182)"/>
<path d="M0 0 C11.22 0 22.44 0 34 0 C34 0.66 34 1.32 34 2 C30.41673516 2.16816121 26.83337798 2.33426877 23.25 2.5 C22.23421875 2.54769531 21.2184375 2.59539062 20.171875 2.64453125 C18.70234375 2.71220703 18.70234375 2.71220703 17.203125 2.78125 C16.30239258 2.82314453 15.40166016 2.86503906 14.47363281 2.90820312 C10.77818949 3.04534157 7.55444339 3.01555526 4 2 C4.598125 2.886875 5.19625 3.77375 5.8125 4.6875 C8.64780717 8.98096514 11.13115803 13.24751281 13.375 17.875 C14.93844277 21.09217554 16.54324417 23.80467918 18.8125 26.5625 C21.79146129 30.45376818 21.48074891 34.28866072 21 39 C17.58740245 35.14365912 16.06351118 30.52795308 14.1875 25.8125 C10.86712848 17.69518621 7.14656154 10.8917998 1.625 4.0625 C0 2 0 2 0 0 Z " fill="#EA5C32" transform="translate(354,190)"/>
<path d="M0 0 C1.32685318 -0.00461494 1.32685318 -0.00461494 2.68051147 -0.00932312 C3.63366241 -0.0021376 4.58681335 0.00504791 5.56884766 0.01245117 C6.55156647 0.01290939 7.53428528 0.01336761 8.54678345 0.01383972 C10.62641608 0.01686163 12.70604645 0.02474611 14.78564453 0.03710938 C17.96346088 0.05530854 21.14098475 0.05761939 24.31884766 0.05737305 C26.3396835 0.06229068 28.36051737 0.06812006 30.38134766 0.07495117 C31.80500137 0.07662041 31.80500137 0.07662041 33.25741577 0.07832336 C34.14828888 0.08470322 35.03916199 0.09108307 35.95703125 0.09765625 C36.73629974 0.10146805 37.51556824 0.10527985 38.31845093 0.10920715 C40.8205036 0.25533615 43.1638188 0.69983165 45.60791016 1.24291992 C43.60791016 4.24291992 43.60791016 4.24291992 40.48291016 4.93041992 C39.53416016 5.03354492 38.58541016 5.13666992 37.60791016 5.24291992 C37.60791016 4.25291992 37.60791016 3.26291992 37.60791016 2.24291992 C34.98263827 2.18909886 32.35846303 2.14933679 29.73291016 2.11791992 C28.61335938 2.0927832 28.61335938 2.0927832 27.47119141 2.06713867 C25.51596554 2.04952402 23.56048994 2.13971803 21.60791016 2.24291992 C20.94791016 2.90291992 20.28791016 3.56291992 19.60791016 4.24291992 C14.27133083 4.80921161 8.84645734 4.34577196 3.60791016 3.24291992 C3.27791016 4.56291992 2.94791016 5.88291992 2.60791016 7.24291992 C-0.69208984 5.59291992 -3.99208984 3.94291992 -7.39208984 2.24291992 C-4.25899889 0.15419262 -3.56144512 -0.006526 0 0 Z " fill="#E35E38" transform="translate(436.39208984375,187.757080078125)"/>
<path d="M0 0 C-0.70125 0.61875 -1.4025 1.2375 -2.125 1.875 C-9.09700872 9.0032442 -12.40726859 18.17134609 -15.95043945 27.29614258 C-18.96271062 35.03525081 -22.37819322 42.53002351 -26 50 C-26.33 50 -26.66 50 -27 50 C-27 47.69 -27 45.38 -27 43 C-26.34 43 -25.68 43 -25 43 C-24.86464844 42.41863281 -24.72929687 41.83726562 -24.58984375 41.23828125 C-24.03776312 39.14329979 -23.354321 37.20192544 -22.5625 35.1875 C-21.53678856 32.51865858 -20.709022 29.95590247 -19.9375 27.1875 C-19 24 -19 24 -17 21 C-16.87033892 19.00671974 -16.87033892 19.00671974 -17.0625 16.9375 C-17.041875 15.638125 -17.02125 14.33875 -17 13 C-16.01 12.34 -15.02 11.68 -14 11 C-13.67 11.66 -13.34 12.32 -13 13 C-13 11.68 -13 10.36 -13 9 C-12.01 8.34 -11.02 7.68 -10 7 C-10 5.68 -10 4.36 -10 3 C-6.66954606 0.33563684 -4.2225435 -0.3619323 0 0 Z " fill="#D25E3A" transform="translate(474,193)"/>
<path d="M0 0 C1.65 1.65 3.3 3.3 5 5 C4.01 5 3.02 5 2 5 C1.67 4.67 1.34 4.34 1 4 C1.65091677 13.04235055 1.65091677 13.04235055 3 22 C3.9075 22.28875 4.815 22.5775 5.75 22.875 C9 24 9 24 11.0625 25.0625 C15.65159337 27.28302905 20.80156358 27.26999558 25.8125 27.5625 C26.50537109 27.60568359 27.19824219 27.64886719 27.91210938 27.69335938 C29.60788686 27.79861453 31.30392052 27.89972863 33 28 C33 28.33 33 28.66 33 29 C8.15805969 29.8813829 8.15805969 29.8813829 -0.3984375 24.48828125 C-2.88717178 20.621638 -2.50313891 16.93247818 -2.375 12.4375 C-2.37371094 11.57447266 -2.37242187 10.71144531 -2.37109375 9.82226562 C-2.28158482 3.42237723 -2.28158482 3.42237723 0 0 Z " fill="#C5694C" transform="translate(357,305)"/>
<path d="M0 0 C0.66 0 1.32 0 2 0 C2 2.31 2 4.62 2 7 C-2.455 7.495 -2.455 7.495 -7 8 C-7 8.99 -7 9.98 -7 11 C13.295 11.495 13.295 11.495 34 12 C33.505 10.02 33.505 10.02 33 8 C30.36 7.67 27.72 7.34 25 7 C25 6.34 25 5.68 25 5 C26.45823212 4.9729957 27.91660675 4.95360213 29.375 4.9375 C30.18710938 4.92589844 30.99921875 4.91429687 31.8359375 4.90234375 C34 5 34 5 36 6 C36.125 8.875 36.125 8.875 36 12 C34 14 34 14 32.1337738 14.20927429 C31.37734085 14.19008438 30.6209079 14.17089447 29.84155273 14.15112305 C28.98403915 14.13417892 28.12652557 14.1172348 27.24302673 14.09977722 C25.85235741 14.05618828 25.85235741 14.05618828 24.43359375 14.01171875 C23.48436539 13.98906448 22.53513702 13.96641022 21.55714417 13.94306946 C19.54879358 13.8930653 17.54056154 13.83809315 15.5324707 13.77856445 C12.4469639 13.68777846 9.36138491 13.61311485 6.27539062 13.54101562 C4.32810014 13.49053325 2.38083321 13.43913222 0.43359375 13.38671875 C-0.49554337 13.36373215 -1.42468048 13.34074554 -2.38197327 13.31706238 C-3.23633469 13.29066177 -4.09069611 13.26426117 -4.97094727 13.23706055 C-5.72658463 13.21548386 -6.48222198 13.19390717 -7.26075745 13.17167664 C-9 13 -9 13 -10 12 C-10.125 9 -10.125 9 -10 6 C-9 5 -9 5 -6.93359375 4.90234375 C-5.69802734 4.91974609 -5.69802734 4.91974609 -4.4375 4.9375 C-3.61121094 4.94652344 -2.78492188 4.95554687 -1.93359375 4.96484375 C-1.29550781 4.97644531 -0.65742187 4.98804688 0 5 C0 3.35 0 1.7 0 0 Z " fill="#B75F44" transform="translate(37,310)"/>
<path d="M0 0 C1.29892009 3.89676027 0.403568 4.95161875 -1.28125 8.63671875 C-1.79075195 9.76489014 -2.30025391 10.89306152 -2.82519531 12.05541992 C-3.65422363 13.85329956 -3.65422363 13.85329956 -4.5 15.6875 C-5.05668045 16.91270602 -5.61234326 18.13837492 -6.16699219 19.36450195 C-7.2657227 21.79166125 -8.36886026 24.21663407 -9.47460938 26.640625 C-11.44126935 30.97180957 -13.35500455 35.32459155 -15.25 39.6875 C-15.79685088 40.94141677 -16.34372282 42.19532435 -16.890625 43.44921875 C-17.43976563 44.71185547 -17.43976563 44.71185547 -18 46 C-19.21613353 42.35159941 -18.6586565 41.65577512 -17.125 38.25 C-15.36573124 34.11301646 -14.58989935 30.46638082 -14 26 C-13.12443803 23.59345538 -12.07520547 21.32961184 -11 19 C-10.67 18.01 -10.34 17.02 -10 16 C-9.01 16 -8.02 16 -7 16 C-6.95101563 15.37351562 -6.90203125 14.74703125 -6.8515625 14.1015625 C-6.77679688 13.28429687 -6.70203125 12.46703125 -6.625 11.625 C-6.52058594 10.40683594 -6.52058594 10.40683594 -6.4140625 9.1640625 C-6 7 -6 7 -4 5 C-3.505 3.9790625 -3.505 3.9790625 -3 2.9375 C-2 1 -2 1 0 0 Z " fill="#CE5D41" transform="translate(446,243)"/>
<path d="M0 0 C1.32 0 2.64 0 4 0 C6.47121578 5.90942903 7.43045929 11.40901708 7.875 17.75 C7.9361499 18.48275146 7.9972998 19.21550293 8.06030273 19.97045898 C8.31748099 24.57810457 7.90800189 27.3766965 5 31 C3.02514795 32.3703055 1.02613283 33.70672372 -1 35 C-1.66 35.99 -2.32 36.98 -3 38 C-3.66 37.67 -4.32 37.34 -5 37 C-4.38511719 36.22076172 -4.38511719 36.22076172 -3.7578125 35.42578125 C1.82776938 28.19659513 4.80527573 21.6907477 3.68359375 12.37109375 C2.8681181 8.06255704 1.86302313 3.99219242 0 0 Z " fill="#D96042" transform="translate(109,206)"/>
<path d="M0 0 C16.5 0 33 0 50 0 C49.34 0.33 48.68 0.66 48 1 C48 1.66 48 2.32 48 3 C50.31 3 52.62 3 55 3 C55 3.33 55 3.66 55 4 C48.4 4 41.8 4 35 4 C35 3.67 35 3.34 35 3 C38.3 2.67 41.6 2.34 45 2 C33.78 2 22.56 2 11 2 C11 2.66 11 3.32 11 4 C8.59454362 5.20272819 7.05003047 5.10071472 4.375 5.0625 C3.14910156 5.04896484 3.14910156 5.04896484 1.8984375 5.03515625 C0.95871094 5.01775391 0.95871094 5.01775391 0 5 C0 3.35 0 1.7 0 0 Z " fill="#D2512B" transform="translate(27,185)"/>
<path d="M0 0 C1.32 0.33 2.64 0.66 4 1 C2.79989255 1.96861464 1.58941756 2.9243885 0.375 3.875 C-0.29789062 4.40867187 -0.97078125 4.94234375 -1.6640625 5.4921875 C-7.61460237 9.33317143 -13.39943491 9.30846855 -20.25 9.25 C-21.14074219 9.25773437 -22.03148437 9.26546875 -22.94921875 9.2734375 C-29.17582749 9.25536316 -34.94516019 8.43447095 -41 7 C-40.34 6.34 -39.68 5.68 -39 5 C-35.8828125 5.0234375 -35.8828125 5.0234375 -32.125 5.375 C-20.65718012 6.40447026 -11.08569623 4.98244619 0 2 C0 1.34 0 0.68 0 0 Z " fill="#DF5C34" transform="translate(406,324)"/>
<path d="M0 0 C1.77987305 -0.0309375 1.77987305 -0.0309375 3.59570312 -0.0625 C11.09163549 -0.09543106 18.03915956 0.44098932 25.0625 3.25 C25.7225 3.91 26.3825 4.57 27.0625 5.25 C25.0825 6.24 25.0825 6.24 23.0625 7.25 C22.485 6.775625 21.9075 6.30125 21.3125 5.8125 C17.04996775 2.85240816 12.36947797 2.97906489 7.3125 2.6875 C6.61511719 2.64431641 5.91773437 2.60113281 5.19921875 2.55664062 C3.48718078 2.45110404 1.77486439 2.3501009 0.0625 2.25 C0.0625 3.24 0.0625 4.23 0.0625 5.25 C-7.3625 4.26 -7.3625 4.26 -14.9375 3.25 C-14.9375 2.59 -14.9375 1.93 -14.9375 1.25 C-10.59306183 -0.92221909 -4.77018947 0.020138 0 0 Z " fill="#E45A30" transform="translate(89.9375,184.75)"/>
<path d="M0 0 C4.12494151 -0.05784708 8.24977944 -0.09354407 12.375 -0.125 C13.550625 -0.14175781 14.72625 -0.15851563 15.9375 -0.17578125 C17.61972656 -0.18544922 17.61972656 -0.18544922 19.3359375 -0.1953125 C20.37282715 -0.20578613 21.4097168 -0.21625977 22.47802734 -0.22705078 C25 0 25 0 27 2 C22.71 2 18.42 2 14 2 C14.33 23.78 14.66 45.56 15 68 C14.34 68 13.68 68 13 68 C12.67 45.89 12.34 23.78 12 1 C8.04 1 4.08 1 0 1 C0 0.67 0 0.34 0 0 Z " fill="#EC6036" transform="translate(47,186)"/>
<path d="M0 0 C0.495 0.99 0.495 0.99 1 2 C0.00390625 4.3125 0.00390625 4.3125 -1.4375 7 C-3.37773011 10.32910995 -3.37773011 10.32910995 -4 14 C-8.29168191 16.01961502 -11.19102477 17.2828809 -16 17 C-16.33 17.33 -16.66 17.66 -17 18 C-18.64340867 18.09854655 -20.2911461 18.12972411 -21.9375 18.125 C-22.83339844 18.12757813 -23.72929687 18.13015625 -24.65234375 18.1328125 C-27 18 -27 18 -29 17 C-29 16.34 -29 15.68 -29 15 C-30.423125 14.9071875 -30.423125 14.9071875 -31.875 14.8125 C-32.90625 14.544375 -33.9375 14.27625 -35 14 C-36.375 11.4375 -36.375 11.4375 -37 9 C-34.525 9.99 -34.525 9.99 -32 11 C-32 11.66 -32 12.32 -32 13 C-29.45847098 13.16903281 -26.91681012 13.33529427 -24.375 13.5 C-23.30572266 13.57154297 -23.30572266 13.57154297 -22.21484375 13.64453125 C-14.23295649 14.56649184 -14.23295649 14.56649184 -7 12 C-5.89000878 10.18590988 -4.85454748 8.3252209 -3.875 6.4375 C-1.06811989 1.06811989 -1.06811989 1.06811989 0 0 Z " fill="#E15C33" transform="translate(400,302)"/>
<path d="M0 0 C1.28386534 3.85159602 0.45412701 4.89342839 -1.16796875 8.55078125 C-1.64943359 9.64197266 -2.13089844 10.73316406 -2.62695312 11.85742188 C-3.14193359 12.99759766 -3.65691406 14.13777344 -4.1875 15.3125 C-4.68314453 16.44107422 -5.17878906 17.56964844 -5.68945312 18.73242188 C-12.05977849 33.02988925 -12.05977849 33.02988925 -16 35 C-14.91475147 32.01556655 -13.72131395 29.56455305 -12 26.875 C-9.2702493 22.28127774 -8.71777155 17.22273248 -8 12 C-7.34 12 -6.68 12 -6 12 C-6 10.02 -6 8.04 -6 6 C-5.34 6 -4.68 6 -4 6 C-3.67 4.35 -3.34 2.7 -3 1 C-2.01 0.67 -1.02 0.34 0 0 Z " fill="#D16040" transform="translate(426,289)"/>
<path d="M0 0 C0.33 0 0.66 0 1 0 C1.02531347 7.49307536 1.04285144 14.98613973 1.05493164 22.47924805 C1.05996662 25.02938245 1.06679496 27.57951395 1.07543945 30.12963867 C1.08754149 33.79086012 1.09323661 37.45204348 1.09765625 41.11328125 C1.10281754 42.2571077 1.10797882 43.40093414 1.11329651 44.579422 C1.11337204 45.64029526 1.11344757 46.70116852 1.11352539 47.79418945 C1.115746 48.72906693 1.11796661 49.6639444 1.12025452 50.62715149 C1 53 1 53 0 56 C-0.66 56 -1.32 56 -2 56 C-2 46.76 -2 37.52 -2 28 C-1.67 28 -1.34 28 -1 28 C-0.67 18.76 -0.34 9.52 0 0 Z " fill="#C35F41" transform="translate(39,190)"/>
<path d="M0 0 C1.65 0 3.3 0 5 0 C1.42425164 3.90081639 -2.21533835 6.6718313 -7 9 C-7.92167969 9.52980469 -8.84335938 10.05960937 -9.79296875 10.60546875 C-15.7790918 13.14233874 -22.56574232 12.30998936 -28.9375 12.1875 C-30.30271966 12.17242992 -31.66795535 12.15874561 -33.03320312 12.14648438 C-36.35588096 12.11126164 -39.67773181 12.06200041 -43 12 C-43 11.67 -43 11.34 -43 11 C-34.42 11 -25.84 11 -17 11 C-17 10.34 -17 9.68 -17 9 C-15.906875 8.731875 -14.81375 8.46375 -13.6875 8.1875 C-10.10352759 7.3551187 -10.10352759 7.3551187 -8.5 5.4375 C-6.07405415 3.11263523 -3.23348581 3.30504583 0 3 C0 2.01 0 1.02 0 0 Z " fill="#D66A48" transform="translate(123,247)"/>
<path d="M0 0 C0.99 0.33 1.98 0.66 3 1 C6.30151936 15.38519149 4.90271136 26.34941463 -3 39 C-3.66 39 -4.32 39 -5 39 C-4.03216141 37.02622966 -3.05089033 35.08700264 -1.94067383 33.18896484 C1.04623411 27.8982691 1.53517691 23.63232821 1.3125 17.625 C1.29799805 16.41650391 1.29799805 16.41650391 1.28320312 15.18359375 C1.2858745 10.95586179 1.2858745 10.95586179 0 7 C-0.04022391 4.6670134 -0.04320247 2.33293334 0 0 Z " fill="#D56140" transform="translate(133,207)"/>
<path d="M0 0 C2.1640625 -0.29296875 2.1640625 -0.29296875 4.625 -0.1875 C5.44226563 -0.16042969 6.25953125 -0.13335937 7.1015625 -0.10546875 C7.72804687 -0.07066406 8.35453125 -0.03585937 9 0 C9.495 2.475 9.495 2.475 10 5 C-3.2 5 -16.4 5 -30 5 C-30 4.67 -30 4.34 -30 4 C-29.16227051 3.98541748 -28.32454102 3.97083496 -27.46142578 3.95581055 C-24.35621098 3.89479293 -21.25166883 3.82064935 -18.14697266 3.73754883 C-16.14117664 3.68790041 -14.13502313 3.65345836 -12.12890625 3.61914062 C-10.87207031 3.58369141 -9.61523438 3.54824219 -8.3203125 3.51171875 C-7.15773926 3.48553467 -5.99516602 3.45935059 -4.79736328 3.43237305 C-3.8742334 3.28968994 -2.95110352 3.14700684 -2 3 C-1.34 2.01 -0.68 1.02 0 0 Z " fill="#E3582E" transform="translate(61,317)"/>
<path d="M0 0 C2.79153537 2.79153537 3.8309252 6.16962212 5.2578125 9.78125 C5.56572723 10.55053833 5.87364197 11.31982666 6.19088745 12.11242676 C6.8405158 13.73883799 7.48759753 15.36626838 8.13232422 16.99462891 C9.12205402 19.49256476 10.12092795 21.98669578 11.12109375 24.48046875 C11.75054703 26.05967791 12.37947133 27.63909803 13.0078125 29.21875 C13.4577507 30.34222839 13.4577507 30.34222839 13.91677856 31.48840332 C16 36.76897241 16 36.76897241 16 39 C14.06640625 38.2734375 14.06640625 38.2734375 12 37 C11.27734375 34.9765625 11.27734375 34.9765625 10.9375 32.625 C10.54404144 29.98131218 10.2982528 28.38224354 8.640625 26.2578125 C6.19961997 22.89852463 5.12645645 19.16267032 3.8125 15.25 C3.53986328 14.45722656 3.26722656 13.66445312 2.98632812 12.84765625 C2.31777387 10.90063859 1.65801022 8.95060634 1 7 C0.67 7 0.34 7 0 7 C0 4.69 0 2.38 0 0 Z " fill="#C86040" transform="translate(389,208)"/>
<path d="M0 0 C4.13710022 1.85456217 6.34342381 3.55512073 8.24609375 7.7421875 C9.03830511 9.82531377 9.82997467 11.90864617 10.62109375 13.9921875 C12.05545397 17.12096191 13.78506253 19.38357692 16 22 C18.13492839 26.05636393 18.17820671 29.45572879 18 34 C14.58763562 30.14392261 13.06271604 25.52801662 11.1875 20.8125 C8.40826414 13.99296531 5.45516127 7.90424486 1 2 C0.67 1.34 0.34 0.68 0 0 Z " fill="#D05F44" transform="translate(357,195)"/>
<path d="M0 0 C0.33 0 0.66 0 1 0 C1.25 6.625 1.25 6.625 -1 10 C-0.67 10.66 -0.34 11.32 0 12 C-3.98196457 13.05404945 -6.98195309 12.84098656 -11 12 C-11.625 10.125 -11.625 10.125 -12 8 C-10 6 -10 6 -7.6171875 5.8046875 C-6.71226563 5.82789063 -5.80734375 5.85109375 -4.875 5.875 C-3.50988281 5.90207031 -3.50988281 5.90207031 -2.1171875 5.9296875 C-1.41851562 5.95289063 -0.71984375 5.97609375 0 6 C-0.185625 5.38125 -0.37125 4.7625 -0.5625 4.125 C-1 2 -1 2 0 0 Z " fill="#EB5931" transform="translate(38,247)"/>
<path d="M0 0 C1.43859375 -0.00193359 1.43859375 -0.00193359 2.90625 -0.00390625 C4.41445313 0.00189453 4.41445313 0.00189453 5.953125 0.0078125 C6.943125 0.00394531 7.933125 0.00007812 8.953125 -0.00390625 C13.81316373 0.00259113 18.42700251 0.10935768 23.203125 1.1328125 C23.203125 1.4628125 23.203125 1.7928125 23.203125 2.1328125 C15.943125 2.1328125 8.683125 2.1328125 1.203125 2.1328125 C2.193125 3.7828125 3.183125 5.4328125 4.203125 7.1328125 C2.5532975 6.71062434 0.90828835 6.26956825 -0.734375 5.8203125 C-1.65089844 5.57667969 -2.56742187 5.33304688 -3.51171875 5.08203125 C-4.64287109 4.61216797 -4.64287109 4.61216797 -5.796875 4.1328125 C-6.126875 3.1428125 -6.456875 2.1528125 -6.796875 1.1328125 C-4.34820863 -0.09152069 -2.73517479 0.00353382 0 0 Z " fill="#D36F4D" transform="translate(352.796875,187.8671875)"/>
<path d="M0 0 C0.99 0.495 0.99 0.495 2 1 C2.40729228 3.32156597 2.74438677 5.6568787 3 8 C3.66 8 4.32 8 5 8 C5 8.99 5 9.98 5 11 C7.64 11 10.28 11 13 11 C13 11.66 13 12.32 13 13 C13.66 13 14.32 13 15 13 C14.35753223 17.97912521 12.39982029 22.616932 10 27 C9.34 27.33 8.68 27.66 8 28 C9.54269924 23.27934033 11.07794619 18.58335908 13 14 C12.01 14.33 11.02 14.66 10 15 C7.0625 14.6875 7.0625 14.6875 4 13 C1.67181349 8.88473455 0 4.75144716 0 0 Z " fill="#D95836" transform="translate(393,271)"/>
<path d="M0 0 C4.3958194 -0.02907584 8.79161399 -0.0468244 13.1875 -0.0625 C14.43337891 -0.07087891 15.67925781 -0.07925781 16.96289062 -0.08789062 C18.16494141 -0.09111328 19.36699219 -0.09433594 20.60546875 -0.09765625 C22.26292114 -0.10551147 22.26292114 -0.10551147 23.95385742 -0.11352539 C26.75799379 -0.00901923 29.27417329 0.35902041 32 1 C30 4 30 4 26.875 4.6875 C25.92625 4.790625 24.9775 4.89375 24 5 C24 4.01 24 3.02 24 2 C16.08 1.67 8.16 1.34 0 1 C0 0.67 0 0.34 0 0 Z " fill="#C66A51" transform="translate(450,188)"/>
<path d="M0 0 C0.33 0.66 0.66 1.32 1 2 C-0.00962067 4.62204426 -1.07807517 7.13913797 -2.25 9.6875 C-2.88042303 11.0871429 -3.51063301 12.48688178 -4.140625 13.88671875 C-4.45064453 14.56911621 -4.76066406 15.25151367 -5.08007812 15.95458984 C-6.42833854 18.95239391 -7.71525051 21.97449425 -9 25 C-9.33 25 -9.66 25 -10 25 C-10 22.69 -10 20.38 -10 18 C-9.34 18 -8.68 18 -8 18 C-7.86464844 17.42121094 -7.72929687 16.84242188 -7.58984375 16.24609375 C-6.66592869 12.72787414 -5.30527689 9.39102863 -4 6 C-3.649375 5.030625 -3.29875 4.06125 -2.9375 3.0625 C-2 1 -2 1 0 0 Z " fill="#C65F40" transform="translate(457,218)"/>
<path d="M0 0 C0.33 0 0.66 0 1 0 C1 6.6 1 13.2 1 20 C2.32 20 3.64 20 5 20 C4.67 20.99 4.34 21.98 4 23 C0.37 23 -3.26 23 -7 23 C-7 22.01 -7 21.02 -7 20 C-4.69 20.33 -2.38 20.66 0 21 C0 14.07 0 7.14 0 0 Z " fill="#0B090A" transform="translate(78,288)"/>
<path d="M0 0 C1.82421875 0.50390625 1.82421875 0.50390625 4 2 C5.13703713 4.68621369 6.01709109 7.15479251 6.8125 9.9375 C7.04130859 10.66646484 7.27011719 11.39542969 7.50585938 12.14648438 C9.13706187 17.5888144 9.13706187 17.5888144 8 21 C6.65757579 18.06657102 5.32765933 15.12763748 4 12.1875 C3.6184375 11.35412109 3.236875 10.52074219 2.84375 9.66210938 C2.4828125 8.85966797 2.121875 8.05722656 1.75 7.23046875 C1.41484375 6.49207764 1.0796875 5.75368652 0.734375 4.99291992 C0 3 0 3 0 0 Z " fill="#C96041" transform="translate(384,250)"/>
<path d="M0 0 C0.33 0.66 0.66 1.32 1 2 C1.99 1.67 2.98 1.34 4 1 C6.73470034 0.98369913 9.43700272 1.0254532 12.16796875 1.12109375 C12.96278152 1.14470474 13.7575943 1.16831573 14.57649231 1.19264221 C17.11368099 1.26918101 19.6505569 1.35324728 22.1875 1.4375 C23.90818785 1.49073049 25.62889094 1.54347083 27.34960938 1.59570312 C31.56660411 1.72478289 35.78333385 1.86061391 40 2 C40 2.33 40 2.66 40 3 C34.37697872 3.19250668 28.75375155 3.37119078 23.12988281 3.53710938 C21.21700279 3.59548822 19.30423387 3.65763491 17.39160156 3.72363281 C14.64148183 3.81787368 11.89124652 3.89853224 9.140625 3.9765625 C8.28631897 4.00875885 7.43201294 4.0409552 6.55181885 4.0741272 C5.75129089 4.09429901 4.95076294 4.11447083 4.12597656 4.13525391 C3.07340668 4.16856308 3.07340668 4.16856308 1.99957275 4.20254517 C-0.35888809 3.96364671 -1.95362625 3.16471165 -4 2 C-2.68 2 -1.36 2 0 2 C0 1.34 0 0.68 0 0 Z " fill="#000000" transform="translate(212,250)"/>
<path d="M0 0 C0.99 0.66 1.98 1.32 3 2 C2.49770926 6.26947129 2.02851102 10.16836808 0 14 C-0.99 14.33 -1.98 14.66 -3 15 C-3.33 14.01 -3.66 13.02 -4 12 C-3.34 11.34 -2.68 10.68 -2 10 C-2 8.68 -2 7.36 -2 6 C-2 2 -2 2 0 0 Z " fill="#DA5934" transform="translate(459,204)"/>
<path d="M0 0 C0.99 0.495 0.99 0.495 2 1 C2.66666667 3.33333333 3.33333333 5.66666667 4 8 C4.66 8.33 5.32 8.66 6 9 C6.66796875 10.92578125 6.66796875 10.92578125 7.1875 13.3125 C7.36667969 14.09238281 7.54585938 14.87226563 7.73046875 15.67578125 C8.01067443 18.09204759 7.74132137 19.70242952 7 22 C7 21.01 7 20.02 7 19 C6.34 19 5.68 19 5 19 C4.15919981 16.58570231 3.32718598 14.16896007 2.5 11.75 C2.14228516 10.72712891 2.14228516 10.72712891 1.77734375 9.68359375 C0.60578713 6.23586997 0 3.68297096 0 0 Z " fill="#DE5F31" transform="translate(391,260)"/>
<path d="M0 0 C0.66 0.66 1.32 1.32 2 2 C5.09926819 1.67801034 5.09926819 1.67801034 8 1 C7.67 1.598125 7.34 2.19625 7 2.8125 C5.79212012 5.05386471 5.79212012 5.05386471 6 8 C6.99 8.66 7.98 9.32 9 10 C8.67 11.32 8.34 12.64 8 14 C6.654869 12.42667714 5.32424946 10.84093859 4 9.25 C3.2575 8.36828125 2.515 7.4865625 1.75 6.578125 C0 4 0 4 0 0 Z " fill="#E75E33" transform="translate(100,191)"/>
<path d="M0 0 C1.08667969 0.01804688 2.17335938 0.03609375 3.29296875 0.0546875 C4.54013672 0.08949219 4.54013672 0.08949219 5.8125 0.125 C5.8125 0.455 5.8125 0.785 5.8125 1.125 C3.5025 1.455 1.1925 1.785 -1.1875 2.125 C-0.1975 2.455 0.7925 2.785 1.8125 3.125 C1.4825 4.445 1.1525 5.765 0.8125 7.125 C-2.4875 5.475 -5.7875 3.825 -9.1875 2.125 C-5.66070901 -0.22619399 -4.15870515 -0.08943452 0 0 Z " fill="#B86350" transform="translate(438.1875,187.875)"/>
<path d="M0 0 C3.63 0.33 7.26 0.66 11 1 C11 1.99 11 2.98 11 4 C8.59454362 5.20272819 7.05003047 5.10071472 4.375 5.0625 C3.14910156 5.04896484 3.14910156 5.04896484 1.8984375 5.03515625 C0.95871094 5.01775391 0.95871094 5.01775391 0 5 C0 3.35 0 1.7 0 0 Z " fill="#D15B39" transform="translate(27,185)"/>
<path d="M0 0 C0.33 0 0.66 0 1 0 C0.33333333 4.66666667 -0.33333333 9.33333333 -1 14 C-3.31 14 -5.62 14 -8 14 C-8.33 12.68 -8.66 11.36 -9 10 C-7.35 10 -5.7 10 -4 10 C-2.68 6.7 -1.36 3.4 0 0 Z " fill="#DE5B34" transform="translate(420,256)"/>
<path d="M0 0 C9.9 0 19.8 0 30 0 C30 0.33 30 0.66 30 1 C21.09 1 12.18 1 3 1 C3.66 2.32 4.32 3.64 5 5 C3.0625 4.1875 3.0625 4.1875 1 3 C0.67 2.01 0.34 1.02 0 0 Z " fill="#E05E37" transform="translate(354,190)"/>
<path d="M0 0 C1.32 0.33 2.64 0.66 4 1 C-1.99249794 5.83658463 -6.96045253 9.47291456 -15 9 C-13 7 -13 7 -9.625 6.0625 C-6.2819744 5.08264767 -4.63131584 4.14403513 -2 2 C-1.34 2 -0.68 2 0 2 C0 1.34 0 0.68 0 0 Z " fill="#C16953" transform="translate(406,324)"/>
<path d="M0 0 C2.475 0.99 2.475 0.99 5 2 C5 2.66 5 3.32 5 4 C6.175625 4.144375 7.35125 4.28875 8.5625 4.4375 C12.38212272 4.91410176 16.19110019 5.44453544 20 6 C20 6.33 20 6.66 20 7 C6.3390426 7.39789196 6.3390426 7.39789196 2 5 C0.625 2.375 0.625 2.375 0 0 Z " fill="#C3664E" transform="translate(363,311)"/>
<path d="M0 0 C5.53254783 2.48010765 7.42839469 5.42814726 9.75 11 C10.19859375 12.051875 10.6471875 13.10375 11.109375 14.1875 C12 17 12 17 11 20 C10.45730469 18.89140625 9.91460937 17.7828125 9.35546875 16.640625 C8.63302726 15.17697731 7.91035908 13.7134415 7.1875 12.25 C6.83107422 11.52039063 6.47464844 10.79078125 6.10742188 10.0390625 C4.32469483 6.44089782 2.58911661 3.10367291 0 0 Z " fill="#C2654B" transform="translate(357,195)"/>
<path d="M0 0 C4.20689603 2.18434986 6.51367827 4.58889481 9.25 8.4375 C10.27867187 9.85869141 10.27867187 9.85869141 11.328125 11.30859375 C12.7889965 13.6603238 13.56621448 15.30159887 14 18 C11.91517216 16.01158039 10.23381464 14.01122842 8.625 11.625 C6.94128211 9.20656884 5.36497661 7.36497661 3.25 5.25 C1 3 1 3 0 0 Z " fill="#CD785F" transform="translate(121,190)"/>
<path d="M0 0 C0.66 0 1.32 0 2 0 C2 2.31 2 4.62 2 7 C-1.63 7.33 -5.26 7.66 -9 8 C-9 7.01 -9 6.02 -9 5 C-6.03 5 -3.06 5 0 5 C0 3.35 0 1.7 0 0 Z " fill="#CC674B" transform="translate(37,310)"/>
<path d="M0 0 C8.57142857 -0.14285714 8.57142857 -0.14285714 12 1 C12 1.99 12 2.98 12 4 C9.69 4.33 7.38 4.66 5 5 C5 4.01 5 3.02 5 2 C3.35 1.67 1.7 1.34 0 1 C0 0.67 0 0.34 0 0 Z " fill="#E55D35" transform="translate(462,189)"/>
<path d="M0 0 C1.00289062 0.10183594 2.00578125 0.20367187 3.0390625 0.30859375 C3.80992188 0.39238281 4.58078125 0.47617188 5.375 0.5625 C5.045 1.5525 4.715 2.5425 4.375 3.5625 C0.415 3.2325 -3.545 2.9025 -7.625 2.5625 C-7.625 1.9025 -7.625 1.2425 -7.625 0.5625 C-4.89657939 -0.80171031 -3.01546682 -0.31557211 0 0 Z " fill="#EA6136" transform="translate(82.625,185.4375)"/>
<path d="M0 0 C1.45823212 -0.0270043 2.91660675 -0.04639787 4.375 -0.0625 C5.18710938 -0.07410156 5.99921875 -0.08570313 6.8359375 -0.09765625 C9 0 9 0 11 1 C11 2.98 11 4.96 11 7 C10.34 7 9.68 7 9 7 C8.67 5.68 8.34 4.36 8 3 C5.36 2.67 2.72 2.34 0 2 C0 1.34 0 0.68 0 0 Z " fill="#C66B54" transform="translate(62,315)"/>
<path d="M0 0 C0.33 0 0.66 0 1 0 C1.25 6.625 1.25 6.625 -1 10 C-1.99 9.67 -2.98 9.34 -4 9 C-4 8.34 -4 7.68 -4 7 C-6.64 7.66 -9.28 8.32 -12 9 C-11.34 8.01 -10.68 7.02 -10 6 C-7.6171875 5.70703125 -7.6171875 5.70703125 -4.875 5.8125 C-3.96492188 5.83957031 -3.05484375 5.86664063 -2.1171875 5.89453125 C-1.41851562 5.92933594 -0.71984375 5.96414062 0 6 C-0.185625 5.38125 -0.37125 4.7625 -0.5625 4.125 C-1 2 -1 2 0 0 Z " fill="#D16947" transform="translate(38,247)"/>
<path d="M0 0 C0.99 0.495 0.99 0.495 2 1 C2.40729228 3.32156597 2.74438677 5.6568787 3 8 C3.66 8 4.32 8 5 8 C5 8.99 5 9.98 5 11 C6.32 11.33 7.64 11.66 9 12 C9 12.66 9 13.32 9 14 C6.64453125 13.8046875 6.64453125 13.8046875 4 13 C2.63671875 10.8203125 2.63671875 10.8203125 1.6875 8.125 C1.19830078 6.79855469 1.19830078 6.79855469 0.69921875 5.4453125 C0 3 0 3 0 0 Z " fill="#BD6547" transform="translate(393,271)"/>
<path d="M0 0 C0.33 0.66 0.66 1.32 1 2 C-0.00327431 4.4344156 -1.0600367 6.72223885 -2.25 9.0625 C-2.56324219 9.71283203 -2.87648437 10.36316406 -3.19921875 11.03320312 C-5.62821155 15.87607052 -5.62821155 15.87607052 -9 17 C-7.51481201 12.95698825 -5.57122002 9.38853744 -3.375 5.6875 C-2.74335938 4.61886719 -2.11171875 3.55023438 -1.4609375 2.44921875 C-0.97882813 1.64097656 -0.49671875 0.83273438 0 0 Z " fill="#090907" transform="translate(217,235)"/>
<path d="M0 0 C1 3 1 3 -0.4375 6.1875 C-1.2109375 7.5796875 -1.2109375 7.5796875 -2 9 C-2.66 9 -3.32 9 -4 9 C-4.33 9.66 -4.66 10.32 -5 11 C-5.625 9.125 -5.625 9.125 -6 7 C-5.34 6.34 -4.68 5.68 -4 5 C-3.505 3.9790625 -3.505 3.9790625 -3 2.9375 C-2 1 -2 1 0 0 Z " fill="#D75536" transform="translate(446,243)"/>
<path d="M0 0 C1.49080078 0.02707031 1.49080078 0.02707031 3.01171875 0.0546875 C3.77097656 0.07789063 4.53023438 0.10109375 5.3125 0.125 C5.3125 1.445 5.3125 2.765 5.3125 4.125 C4.48492187 3.89490234 4.48492187 3.89490234 3.640625 3.66015625 C1.10932617 3.07829729 -1.35191972 2.80064555 -3.9375 2.5625 C-5.27554688 2.43681641 -5.27554688 2.43681641 -6.640625 2.30859375 C-7.31609375 2.24800781 -7.9915625 2.18742188 -8.6875 2.125 C-5.26655758 -0.15562828 -4.00562778 -0.09425007 0 0 Z " fill="#050504" transform="translate(254.6875,237.875)"/>
<path d="M0 0 C3.63 0 7.26 0 11 0 C10.67 0.66 10.34 1.32 10 2 C6.6322481 2.93548664 3.4815554 3.09947301 0 3 C0 2.01 0 1.02 0 0 Z " fill="#0B080B" transform="translate(71,266)"/>
<path d="M0 0 C0.99 0.495 0.99 0.495 2 1 C1.67 2.65 1.34 4.3 1 6 C1.66 6 2.32 6 3 6 C3.33 8.31 3.66 10.62 4 13 C3.01 13 2.02 13 1 13 C0.1276588 10.00519083 -0.10829766 7.36424089 -0.0625 4.25 C-0.05347656 3.45078125 -0.04445313 2.6515625 -0.03515625 1.828125 C-0.02355469 1.22484375 -0.01195312 0.6215625 0 0 Z " fill="#CF5E3C" transform="translate(385,195)"/>
<path d="M0 0 C3.88862987 1.26117725 5.89375599 2.45264167 8 6 C8 6.66 8 7.32 8 8 C7.34 8 6.68 8 6 8 C5.67 7.34 5.34 6.68 5 6 C3.35 6 1.7 6 0 6 C0 4.02 0 2.04 0 0 Z " fill="#D45A31" transform="translate(357,308)"/>
<path d="M0 0 C0.99 0.33 1.98 0.66 3 1 C2.34 2.65 1.68 4.3 1 6 C0.34 6 -0.32 6 -1 6 C-1 7.32 -1 8.64 -1 10 C-1.99 10.33 -2.98 10.66 -4 11 C-3.4740625 9.329375 -3.4740625 9.329375 -2.9375 7.625 C-1.62760669 4.19735524 -1.62760669 4.19735524 -3 2 C-2.01 1.34 -1.02 0.68 0 0 Z " fill="#080706" transform="translate(246,209)"/>
<path d="M0 0 C0.66 0 1.32 0 2 0 C2.02712066 1.43739513 2.04645067 2.87493863 2.0625 4.3125 C2.07410156 5.11300781 2.08570313 5.91351563 2.09765625 6.73828125 C2 9 2 9 1 12 C0.34 12 -0.32 12 -1 12 C-1.02712066 10.56260487 -1.04645067 9.12506137 -1.0625 7.6875 C-1.07410156 6.88699219 -1.08570313 6.08648437 -1.09765625 5.26171875 C-1 3 -1 3 0 0 Z " fill="#D05C41" transform="translate(38,234)"/>
<path d="M0 0 C0.91007812 0.00902344 1.82015625 0.01804688 2.7578125 0.02734375 C3.45648438 0.03894531 4.15515625 0.05054688 4.875 0.0625 C4.875 0.3925 4.875 0.7225 4.875 1.0625 C2.895 1.0625 0.915 1.0625 -1.125 1.0625 C-1.455 2.0525 -1.785 3.0425 -2.125 4.0625 C-3.445 4.0625 -4.765 4.0625 -6.125 4.0625 C-6.455 3.0725 -6.785 2.0825 -7.125 1.0625 C-4.60024538 -0.19987731 -2.81299534 -0.03606404 0 0 Z " fill="#A67054" transform="translate(353.125,187.9375)"/>
<path d="M0 0 C-1.75 3.875 -1.75 3.875 -4 5 C-5.99960012 5.039992 -8.00047242 5.04346799 -10 5 C-3.40909091 0 -3.40909091 0 0 0 Z " fill="#CB6648" transform="translate(394,312)"/>
<path d="M0 0 C1.65 0 3.3 0 5 0 C-1.07792208 6.24675325 -1.07792208 6.24675325 -4 8 C-4.99 7.67 -5.98 7.34 -7 7 C-6.030625 6.401875 -5.06125 5.80375 -4.0625 5.1875 C-0.76947958 3.28872491 -0.76947958 3.28872491 0 0 Z " fill="#CC6C51" transform="translate(123,247)"/>
<path d="M0 0 C0.99 0 1.98 0 3 0 C5.125 7.625 5.125 7.625 4 11 C3.32880451 9.5437455 2.66318193 8.08492133 2 6.625 C1.62875 5.81289062 1.2575 5.00078125 0.875 4.1640625 C0 2 0 2 0 0 Z " fill="#D85B3B" transform="translate(403,248)"/>
<path d="M0 0 C1 3 1 3 0.109375 5.4453125 C-0.33921875 6.32960937 -0.7878125 7.21390625 -1.25 8.125 C-1.90742188 9.45917969 -1.90742188 9.45917969 -2.578125 10.8203125 C-4 13 -4 13 -7 14 C-4.66666667 9.33333333 -2.33333333 4.66666667 0 0 Z " fill="#CA7056" transform="translate(135,232)"/>
<path d="M0 0 C1.98 0 3.96 0 6 0 C5.401875 0.515625 4.80375 1.03125 4.1875 1.5625 C1.4926464 4.56533687 0.44279381 7.24873609 -1 11 C-1.33 11 -1.66 11 -2 11 C-1 3.57142857 -1 3.57142857 0 0 Z " fill="#C86346" transform="translate(388,190)"/>
<path d="M0 0 C1.32 0 2.64 0 4 0 C4.625 3.375 4.625 3.375 5 7 C4.34 7.66 3.68 8.32 3 9 C2.01 6.03 1.02 3.06 0 0 Z " fill="#E25B33" transform="translate(374,224)"/>
<path d="M0 0 C3.3566285 2.23775234 3.57996014 2.93320048 4.6875 6.625 C4.93886719 7.44226563 5.19023437 8.25953125 5.44921875 9.1015625 C5.72185547 10.04128906 5.72185547 10.04128906 6 11 C5.01 10.67 4.02 10.34 3 10 C1.25327015 6.5065403 0 3.93154432 0 0 Z " fill="#DD5A33" transform="translate(381,240)"/>
<path d="M0 0 C0.99 0.33 1.98 0.66 3 1 C2.34 2.32 1.68 3.64 1 5 C0.34 5 -0.32 5 -1 5 C-1 5.66 -1 6.32 -1 7 C-1.99 6.67 -2.98 6.34 -4 6 C-3.34 5.67 -2.68 5.34 -2 5 C-1.27840576 3.35636866 -0.60648579 1.68949614 0 0 Z " fill="#0D0B0A" transform="translate(247,183)"/>
<path d="M0 0 C1.32 0.33 2.64 0.66 4 1 C1.75 3.0625 1.75 3.0625 -1 5 C-3.3125 4.75 -3.3125 4.75 -5 4 C-3.35 3.34 -1.7 2.68 0 2 C0 1.34 0 0.68 0 0 Z " fill="#D06047" transform="translate(406,324)"/>
<path d="M0 0 C-0.639375 0.28875 -1.27875 0.5775 -1.9375 0.875 C-4.15206079 1.82823451 -4.15206079 1.82823451 -5 4 C-6.32 3.67 -7.64 3.34 -9 3 C-9 2.34 -9 1.68 -9 1 C-6.04335481 -0.4783226 -3.25770263 -0.06032783 0 0 Z " fill="#EB5F2F" transform="translate(45,186)"/>
<path d="M0 0 C0.66 0 1.32 0 2 0 C0.90931332 3.77545388 0.0916909 6.47043472 -3 9 C-2.44271087 5.65626525 -1.64826111 2.96687001 0 0 Z " fill="#DD5D31" transform="translate(412,315)"/>
<path d="M0 0 C0.33 0.66 0.66 1.32 1 2 C3.02463255 2.65213292 3.02463255 2.65213292 5 3 C5 3.66 5 4.32 5 5 C2.03 4.505 2.03 4.505 -1 4 C-1.33 3.01 -1.66 2.02 -2 1 C-1.34 0.67 -0.68 0.34 0 0 Z " fill="#D7523D" transform="translate(28,255)"/>
<path d="M0 0 C0.99 0.33 1.98 0.66 3 1 C3.6875 3.0625 3.6875 3.0625 4 5 C1.69 4.01 -0.62 3.02 -3 2 C-2.01 1.34 -1.02 0.68 0 0 Z " fill="#945247" transform="translate(432,188)"/>
<path d="M0 0 C0.928125 0.0825 1.85625 0.165 2.8125 0.25 C0.83829865 2.77259061 -0.15495642 3.2429808 -3.375 3.9375 C-4.7671875 4.0921875 -4.7671875 4.0921875 -6.1875 4.25 C-4.36434338 1.00883268 -3.82500054 0.30000004 0 0 Z " fill="#AA7059" transform="translate(396.1875,188.75)"/>
<path d="" fill="#000000" transform="translate(0,0)"/>
<path d="" fill="#000000" transform="translate(0,0)"/>
<path d="" fill="#000000" transform="translate(0,0)"/>
<path d="" fill="#000000" transform="translate(0,0)"/>
<path d="" fill="#000000" transform="translate(0,0)"/>
<path d="" fill="#000000" transform="translate(0,0)"/>
<path d="" fill="#000000" transform="translate(0,0)"/>
<path d="" fill="#000000" transform="translate(0,0)"/>
<path d="" fill="#000000" transform="translate(0,0)"/>
<path d="" fill="#000000" transform="translate(0,0)"/>
<path d="" fill="#000000" transform="translate(0,0)"/>
<path d="" fill="#000000" transform="translate(0,0)"/>
<path d="" fill="#000000" transform="translate(0,0)"/>
<path d="" fill="#000000" transform="translate(0,0)"/>
<path d="" fill="#000000" transform="translate(0,0)"/>
<path d="" fill="#000000" transform="translate(0,0)"/>
<path d="" fill="#000000" transform="translate(0,0)"/>
<path d="" fill="#000000" transform="translate(0,0)"/>
<path d="" fill="#000000" transform="translate(0,0)"/>
<path d="" fill="#000000" transform="translate(0,0)"/>
<path d="" fill="#000000" transform="translate(0,0)"/>
<path d="" fill="#000000" transform="translate(0,0)"/>
<path d="" fill="#000000" transform="translate(0,0)"/>
<path d="" fill="#000000" transform="translate(0,0)"/>
<path d="" fill="#000000" transform="translate(0,0)"/>
<path d="" fill="#000000" transform="translate(0,0)"/>
<path d="" fill="#000000" transform="translate(0,0)"/>
<path d="" fill="#000000" transform="translate(0,0)"/>
<path d="" fill="#000000" transform="translate(0,0)"/>
<path d="" fill="#000000" transform="translate(0,0)"/>
<path d="" fill="#000000" transform="translate(0,0)"/>
<path d="" fill="#000000" transform="translate(0,0)"/>
<path d="" fill="#000000" transform="translate(0,0)"/>
<path d="" fill="#000000" transform="translate(0,0)"/>
<path d="" fill="#000000" transform="translate(0,0)"/>
<path d="" fill="#000000" transform="translate(0,0)"/>
<path d="" fill="#000000" transform="translate(0,0)"/>
<path d="" fill="#000000" transform="translate(0,0)"/>
<path d="" fill="#000000" transform="translate(0,0)"/>
<path d="" fill="#000000" transform="translate(0,0)"/>
<path d="" fill="#000000" transform="translate(0,0)"/>
<path d="" fill="#000000" transform="translate(0,0)"/>
<path d="" fill="#000000" transform="translate(0,0)"/>
<path d="" fill="#000000" transform="translate(0,0)"/>
<path d="" fill="#000000" transform="translate(0,0)"/>
</svg>
