<?xml version="1.0" encoding="UTF-8"?>
<svg version="1.1" xmlns="http://www.w3.org/2000/svg" width="299" height="168">
<path d="M0 0 C4.05243722 -1.24253085 6.96224707 -1.36816421 11 0 C16.59488858 5.14079288 21.60070281 12.20140563 25 19 C25.33 12.73 25.66 6.46 26 0 C30.29 0 34.58 0 39 0 C39 14.85 39 29.7 39 45 C30 45 30 45 26.63671875 42.33203125 C25.62777888 41.18102423 24.64476593 40.00682775 23.6875 38.8125 C23.18927734 38.23435547 22.69105469 37.65621094 22.17773438 37.06054688 C19.36730453 33.77490564 16.7011312 30.37641401 14 27 C13.67 32.94 13.34 38.88 13 45 C8.71 45 4.42 45 0 45 C0 36.75 0 28.5 0 20 C-5.26130627 23.9459797 -10.31313876 27.87866868 -15.25 32.1875 C-16.4417001 33.22381679 -17.63438107 34.25900692 -18.828125 35.29296875 C-19.37791016 35.77040527 -19.92769531 36.2478418 -20.49414062 36.73974609 C-22 38 -22 38 -24.296875 39.61328125 C-26.25613679 41.20855175 -27.04205055 42.68495549 -28 45 C-29.81242052 45.02687279 -31.62495233 45.04633715 -33.4375 45.0625 C-34.44683594 45.07410156 -35.45617187 45.08570313 -36.49609375 45.09765625 C-39 45 -39 45 -40 44 C-40.71717226 40.29461001 -40.99848193 38.55644852 -40 35 C-36.74114472 30.83828154 -33.11840229 27.30832616 -29 24 C-28.34 24 -27.68 24 -27 24 C-26.67 28.29 -26.34 32.58 -26 37 C-24.56720703 35.74896484 -24.56720703 35.74896484 -23.10546875 34.47265625 C-22.17359741 33.66272217 -22.17359741 33.66272217 -21.22290039 32.83642578 C-19.85691777 31.64592203 -18.49546714 30.45019975 -17.13842773 29.24951172 C-14.04531728 26.53359204 -11.00330269 23.91548954 -7.5546875 21.66015625 C-4.51711092 19.59412832 -2.21856658 17.93554237 0 15 C0.89619582 9.81561138 0.68243405 5.23199437 0 0 Z M8 8 C8.99 8.495 8.99 8.495 10 9 C10.33 9.66 10.66 10.32 11 11 C11 10.01 11 9.02 11 8 C10.01 8 9.02 8 8 8 Z M2 9 C2.99 10.485 2.99 10.485 4 12 C4 11.01 4 10.02 4 9 C3.34 9 2.68 9 2 9 Z M9 12 C10 14 10 14 10 14 Z M8 14 C8 17 8 17 8 17 Z " fill="#020101" transform="translate(147,74)"/>
<path d="M0 0 C4.37692255 0.50502953 5.33899353 2.11206588 8.25 5.375 C10.50340603 8.38807701 12.59203374 11.51069936 14.67578125 14.64257812 C15.79608044 16.27132079 17.01661178 17.83012899 18.25 19.375 C19.24 19.375 20.23 19.375 21.25 19.375 C22.75526214 17.81940274 22.75526214 17.81940274 24.09765625 15.7265625 C24.62037109 14.96859375 25.14308594 14.210625 25.68164062 13.4296875 C26.21982422 12.62789062 26.75800781 11.82609375 27.3125 11 C28.38516637 9.42862667 29.45932006 7.85826732 30.53515625 6.2890625 C31.00832275 5.5873291 31.48148926 4.8855957 31.96899414 4.16259766 C33.25 2.375 33.25 2.375 35.25 0.375 C37.56 0.375 39.87 0.375 42.25 0.375 C42.25 15.225 42.25 30.075 42.25 45.375 C38.29 45.375 34.33 45.375 30.25 45.375 C27.78910088 42.91410088 28.47337672 35.40654122 28.25 32.375 C24.29 36.83 24.29 36.83 20.25 41.375 C16.26930733 38.50005529 13.81428003 35.55382671 11.25 31.375 C11.18941406 32.21804687 11.12882812 33.06109375 11.06640625 33.9296875 C10.98261719 35.02539062 10.89882812 36.12109375 10.8125 37.25 C10.73128906 38.34054688 10.65007812 39.43109375 10.56640625 40.5546875 C10.25 43.375 10.25 43.375 9.25 45.375 C7.27090602 45.40186553 5.29171029 45.42133375 3.3125 45.4375 C2.21035156 45.44910156 1.10820313 45.46070313 -0.02734375 45.47265625 C-2.75 45.375 -2.75 45.375 -3.75 44.375 C-3.84785341 43.02955673 -3.87797985 41.67907437 -3.87939453 40.33007812 C-3.88254669 39.47248901 -3.88569885 38.6148999 -3.88894653 37.73132324 C-3.8869223 36.79904907 -3.88489807 35.8667749 -3.8828125 34.90625 C-3.88376923 33.95560669 -3.88472595 33.00496338 -3.88571167 32.0255127 C-3.88639357 30.01131118 -3.88453862 27.99710748 -3.88037109 25.98291016 C-3.87502298 22.88829645 -3.88031577 19.7938279 -3.88671875 16.69921875 C-3.88605797 14.74739551 -3.88477681 12.79557236 -3.8828125 10.84375 C-3.88483673 9.91147583 -3.88686096 8.97920166 -3.88894653 8.01867676 C-3.88579437 7.16108765 -3.88264221 6.30349854 -3.87939453 5.41992188 C-3.87859894 4.66126831 -3.87780334 3.90261475 -3.87698364 3.12097168 C-3.66384355 0.19038505 -2.94226105 0.40121742 0 0 Z " fill="#010001" transform="translate(61.75,73.625)"/>
<path d="M0 0 C8.12129175 0.11824161 14.09631727 1.47428535 20.37646484 6.8190918 C25.94781148 13.57223923 26.85032459 17.97336383 26.78662109 26.79174805 C26.17514819 32.99579332 23.40191563 36.3016146 19.18896484 40.6315918 C12.27251384 44.87577764 5.42508166 45.76843325 -2.56103516 45.5690918 C-3.41826172 45.56393555 -4.27548828 45.5587793 -5.15869141 45.5534668 C-11.40586361 45.47426335 -11.40586361 45.47426335 -12.56103516 44.3190918 C-12.65888857 42.97364853 -12.68901501 41.62316617 -12.69042969 40.27416992 C-12.69358185 39.41658081 -12.69673401 38.5589917 -12.69998169 37.67541504 C-12.69795746 36.74314087 -12.69593323 35.8108667 -12.69384766 34.8503418 C-12.69480438 33.89969849 -12.69576111 32.94905518 -12.69674683 31.96960449 C-12.69742872 29.95540297 -12.69557378 27.94119927 -12.69140625 25.92700195 C-12.68605814 22.83238825 -12.69135093 19.7379197 -12.69775391 16.64331055 C-12.69709313 14.69148731 -12.69581197 12.73966416 -12.69384766 10.7878418 C-12.69587189 9.85556763 -12.69789612 8.92329346 -12.69998169 7.96276855 C-12.69682953 7.10517944 -12.69367737 6.24759033 -12.69042969 5.36401367 C-12.68963409 4.60536011 -12.6888385 3.84670654 -12.6880188 3.06506348 C-12.32940749 -1.86569117 -3.77166665 0.00947655 0 0 Z M1.43896484 13.3190918 C1.43896484 19.5890918 1.43896484 25.8590918 1.43896484 32.3190918 C7.05915992 32.58388956 7.05915992 32.58388956 11.43896484 30.3190918 C13.98472275 26.88231862 13.87569361 23.46801505 13.43896484 19.3190918 C12.09781085 16.30929297 12.09781085 16.30929297 9.43896484 14.3190918 C6.79896484 13.9890918 4.15896484 13.6590918 1.43896484 13.3190918 Z " fill="#010001" transform="translate(201.56103515625,73.680908203125)"/>
<path d="M0 0 C62.37 0 124.74 0 189 0 C189 0.33 189 0.66 189 1 C187.35 1 185.7 1 184 1 C184 4.3 184 7.6 184 11 C184.99 11.33 185.98 11.66 187 12 C170.574375 12.15676351 154.14869454 12.3046137 137.72290516 12.4429636 C130.08923599 12.50744916 122.45560746 12.57446875 114.82202148 12.64819336 C76.85779711 13.01326525 38.95792833 12.99749335 1 12 C1.99 11.67 2.98 11.34 4 11 C4 7.7 4 4.4 4 1 C2.68 0.67 1.36 0.34 0 0 Z M6 1 C6 4.3 6 7.6 6 11 C6.99 11 7.98 11 9 11 C9 7.7 9 4.4 9 1 C8.01 1 7.02 1 6 1 Z M11 1 C11.66 2.32 12.32 3.64 13 5 C13.33 3.68 13.66 2.36 14 1 C13.01 1 12.02 1 11 1 Z M15 1 C15 4.3 15 7.6 15 11 C16.32 10.67 17.64 10.34 19 10 C18.67 9.34 18.34 8.68 18 8 C19.32 8.33 20.64 8.66 22 9 C22 8.34 22 7.68 22 7 C21.01 6.67 20.02 6.34 19 6 C19 4.35 19 2.7 19 1 C17.68 1 16.36 1 15 1 Z M23 1 C22.90021879 4.49234244 23.22157062 7.59437148 24 11 C25.32 10.67 26.64 10.34 28 10 C27.67 7.03 27.34 4.06 27 1 C25.68 1 24.36 1 23 1 Z M29 1 C29 3.64 29 6.28 29 9 C29.99 8.67 30.98 8.34 32 8 C32 5.69 32 3.38 32 1 C31.01 1 30.02 1 29 1 Z M34 1 C33.67 4.3 33.34 7.6 33 11 C33.99 11 34.98 11 36 11 C36 7.7 36 4.4 36 1 C35.34 1 34.68 1 34 1 Z M42 1 C41.70437633 6.32170494 41.70437633 6.32170494 44 11 C44.66 11 45.32 11 46 11 C46 7.7 46 4.4 46 1 C44.68 1 43.36 1 42 1 Z M52 1 C52 1.66 52 2.32 52 3 C50.68 3 49.36 3 48 3 C48 3.66 48 4.32 48 5 C49.32 5 50.64 5 52 5 C52 5.66 52 6.32 52 7 C50.68 7 49.36 7 48 7 C48 7.66 48 8.32 48 9 C49.32 9 50.64 9 52 9 C52 9.66 52 10.32 52 11 C52.99 11 53.98 11 55 11 C55 10.34 55 9.68 55 9 C55.66 9 56.32 9 57 9 C57 9.66 57 10.32 57 11 C59.31 11 61.62 11 64 11 C64 7.7 64 4.4 64 1 C60.04 1 56.08 1 52 1 Z M66 1 C66 4.3 66 7.6 66 11 C66.66 11 67.32 11 68 11 C68.33 7.7 68.66 4.4 69 1 C68.01 1 67.02 1 66 1 Z M71 1 C71.33 2.65 71.66 4.3 72 6 C72.33 6 72.66 6 73 6 C73 4.35 73 2.7 73 1 C72.34 1 71.68 1 71 1 Z M75 1 C75 4.3 75 7.6 75 11 C76.65 11 78.3 11 80 11 C79.01 7.7 78.02 4.4 77 1 C76.34 1 75.68 1 75 1 Z M79 1 C79.33 2.65 79.66 4.3 80 6 C80.66 6 81.32 6 82 6 C82.33 4.35 82.66 2.7 83 1 C81.68 1 80.36 1 79 1 Z M85 1 C84.01 4.3 83.02 7.6 82 11 C83.65 11 85.3 11 87 11 C87 7.7 87 4.4 87 1 C86.34 1 85.68 1 85 1 Z M93 1 C93 1.66 93 2.32 93 3 C91.68 3 90.36 3 89 3 C89 3.66 89 4.32 89 5 C90.32 5 91.64 5 93 5 C93 5.66 93 6.32 93 7 C91.68 7 90.36 7 89 7 C89 7.66 89 8.32 89 9 C90.32 9 91.64 9 93 9 C93 9.66 93 10.32 93 11 C93.99 11 94.98 11 96 11 C96.33 10.34 96.66 9.68 97 9 C97.99 8.67 98.98 8.34 100 8 C98.68 7.01 97.36 6.02 96 5 C96.33 3.68 96.66 2.36 97 1 C95.68 1 94.36 1 93 1 Z M100 1 C100.165 1.721875 100.33 2.44375 100.5 3.1875 C100.97587119 5.86427545 101.077443 8.28949487 101 11 C102.65 11 104.3 11 106 11 C106 8.36 106 5.72 106 3 C105.34 3 104.68 3 104 3 C104 2.34 104 1.68 104 1 C102.68 1 101.36 1 100 1 Z M108 3 C107.75787127 4.98128508 107.75787127 4.98128508 107.875 7.125 C107.91625 8.40375 107.9575 9.6825 108 11 C110.64 11 113.28 11 116 11 C116.99 7.7 117.98 4.4 119 1 C112.89593317 0.33413645 112.89593317 0.33413645 108 3 Z M121 1 C121.99 4.3 122.98 7.6 124 11 C124.66 11 125.32 11 126 11 C126.33 7.7 126.66 4.4 127 1 C125.02 1 123.04 1 121 1 Z M128 1 C128.66 2.65 129.32 4.3 130 6 C130.33 6 130.66 6 131 6 C131 4.35 131 2.7 131 1 C130.01 1 129.02 1 128 1 Z M133 1 C133 4.3 133 7.6 133 11 C133.99 11 134.98 11 136 11 C136 7.7 136 4.4 136 1 C135.01 1 134.02 1 133 1 Z M140 1 C140.99 1.495 140.99 1.495 142 2 C142.125 8.75 142.125 8.75 141 11 C143.97 11 146.94 11 150 11 C150 7.7 150 4.4 150 1 C146.7 1 143.4 1 140 1 Z M156 1 C156 1.66 156 2.32 156 3 C154.68 3 153.36 3 152 3 C152 3.66 152 4.32 152 5 C153.32 5 154.64 5 156 5 C156 5.66 156 6.32 156 7 C154.68 7 153.36 7 152 7 C152 7.66 152 8.32 152 9 C153.32 9 154.64 9 156 9 C156 9.66 156 10.32 156 11 C156.66 11 157.32 11 158 11 C158.99 7.7 159.98 4.4 161 1 C159.35 1 157.7 1 156 1 Z M163 1 C163.99 4.3 164.98 7.6 166 11 C166.66 11 167.32 11 168 11 C168 7.7 168 4.4 168 1 C166.35 1 164.7 1 163 1 Z M174 1 C173.979375 2.27875 173.95875 3.5575 173.9375 4.875 C173.92589844 5.59429687 173.91429687 6.31359375 173.90234375 7.0546875 C173.87350758 9.08185404 173.87350758 9.08185404 175 11 C175.66 11 176.32 11 177 11 C177.33 7.7 177.66 4.4 178 1 C176.68 1 175.36 1 174 1 Z M180 1 C180.33 2.65 180.66 4.3 181 6 C181.33 6 181.66 6 182 6 C182 4.35 182 2.7 182 1 C181.34 1 180.68 1 180 1 Z M20 3 C20 3.66 20 4.32 20 5 C20.99 4.67 21.98 4.34 23 4 C22.01 3.67 21.02 3.34 20 3 Z M39 3 C38.67 3.66 38.34 4.32 38 5 C38.99 5 39.98 5 41 5 C41 4.34 41 3.68 41 3 C40.34 3 39.68 3 39 3 Z M98 3 C98 3.66 98 4.32 98 5 C98.66 4.67 99.32 4.34 100 4 C99.34 3.67 98.68 3.34 98 3 Z M138 3 C138 4.98 138 6.96 138 9 C138.99 8.67 139.98 8.34 141 8 C140.67 6.35 140.34 4.7 140 3 C139.34 3 138.68 3 138 3 Z M170 3 C170 3.66 170 4.32 170 5 C170.99 4.67 171.98 4.34 173 4 C172.01 3.67 171.02 3.34 170 3 Z M70 6 C70 7.65 70 9.3 70 11 C70.99 10.67 71.98 10.34 73 10 C72.01 8.68 71.02 7.36 70 6 Z M128 6 C128 7.65 128 9.3 128 11 C128.99 10.67 129.98 10.34 131 10 C130.01 8.68 129.02 7.36 128 6 Z M179 6 C179 7.65 179 9.3 179 11 C179.99 10.67 180.98 10.34 182 10 C181.01 8.68 180.02 7.36 179 6 Z M170 7 C170 8.32 170 9.64 170 11 C170.99 10.67 171.98 10.34 173 10 C172.01 9.01 171.02 8.02 170 7 Z M11 8 C11 8.99 11 9.98 11 11 C11.66 10.67 12.32 10.34 13 10 C12.34 9.34 11.68 8.68 11 8 Z M39 8 C39 8.99 39 9.98 39 11 C39.66 11 40.32 11 41 11 C40.67 10.01 40.34 9.02 40 8 C39.67 8 39.34 8 39 8 Z M119 9 C118.67 9.66 118.34 10.32 118 11 C119.32 11 120.64 11 122 11 C122 10.34 122 9.68 122 9 C121.01 9 120.02 9 119 9 Z M161 9 C160.67 9.66 160.34 10.32 160 11 C161.32 10.67 162.64 10.34 164 10 C163.01 9.67 162.02 9.34 161 9 Z " fill="#85898D" transform="translate(55,126)"/>
<path d="M0 0 C5.07638684 3.65053199 7.80445526 7.65372455 8.84375 13.8515625 C9.16897058 21.04811017 8.19189836 26.25649951 3.30859375 31.66015625 C-1.66677561 36.2714742 -5.88695185 38.20652596 -12.69140625 38.66015625 C-19.35675385 37.84793788 -24.35307946 35.19334361 -28.94140625 30.22265625 C-32.82325343 24.53852288 -33.51011807 19.44820995 -32.69140625 12.66015625 C-30.57313917 5.46819557 -25.66238872 0.9591461 -19.31640625 -2.71484375 C-12.13734519 -4.424144 -6.47289305 -3.62522403 0 0 Z M-19.69140625 9.66015625 C-22.22050679 13.8220796 -22.55554113 17.90741439 -21.69140625 22.66015625 C-19.42013291 25.68424989 -19.42013291 25.68424989 -16.69140625 27.66015625 C-16.36140625 27.99015625 -16.03140625 28.32015625 -15.69140625 28.66015625 C-11.66820363 29.04700266 -9.3856065 29.0766764 -5.87890625 26.97265625 C-2.48033557 23.37988153 -1.66544591 21.1139355 -1.75390625 16.16015625 C-2.86436602 12.01443978 -4.46202526 10.40513009 -7.69140625 7.66015625 C-8.02140625 7.33015625 -8.35140625 7.00015625 -8.69140625 6.66015625 C-13.32090234 6.23929297 -16.00412968 6.79227448 -19.69140625 9.66015625 Z " fill="#F85A2A" transform="translate(123.69140625,31.33984375)"/>
<path d="M0 0 C3.20815845 -0.08774066 6.41600462 -0.14063706 9.625 -0.1875 C10.52863281 -0.21263672 11.43226562 -0.23777344 12.36328125 -0.26367188 C17.68592114 -0.32194895 21.41665493 -0.02930463 26 3 C29.71325444 7.10412333 30.64422858 10.44029367 30.390625 15.8203125 C29.60724462 20.19157502 27.18655274 22.95727184 23.9375 25.8125 C20.6772686 27.81070634 18.04523696 28.11659764 14.3125 28.0625 C12.889375 28.041875 11.46625 28.02125 10 28 C10 31.96 10 35.92 10 40 C1.50390625 40.09765625 1.50390625 40.09765625 -1 40 C-2.98526087 38.01473913 -2.16392586 34.10373955 -2.16796875 31.38671875 C-2.17129715 30.62075882 -2.17462555 29.85479889 -2.17805481 29.06562805 C-2.18312831 27.44064943 -2.18546301 25.81566036 -2.18530273 24.19067383 C-2.18748172 21.70831982 -2.20561174 19.22641546 -2.22460938 16.74414062 C-2.22754474 15.16666819 -2.22952858 13.58919364 -2.23046875 12.01171875 C-2.23765427 11.26991867 -2.24483978 10.52811859 -2.25224304 9.76383972 C-2.23571042 6.01737411 -2.09009875 3.17941453 0 0 Z M10 10 C10 12.97 10 15.94 10 19 C15.01535052 18.67039784 15.01535052 18.67039784 19 16 C18.71016731 12.69316534 18.71016731 12.69316534 17 10 C14.66702567 9.95907063 12.33294775 9.95758277 10 10 Z " fill="#020101" transform="translate(60,29)"/>
<path d="M0 0 C2.90914144 2.20791517 3.57687942 3.81830301 4.7109375 7.2578125 C5.03707031 8.20527344 5.36320312 9.15273438 5.69921875 10.12890625 C6.3984375 12.8203125 6.3984375 12.8203125 6.3984375 16.8203125 C4.14686083 15.73622003 2.13715227 14.63670667 0.0859375 13.1953125 C-3.96883814 11.12077612 -7.58236487 11.2200105 -11.9140625 12.5078125 C-14.31046935 14.37168449 -14.86812735 15.88657191 -15.6015625 18.8203125 C-15.40857256 21.97248153 -14.85454212 24.2697098 -13.5390625 27.1328125 C-11.11447148 29.24455307 -8.90433882 29.73516147 -5.7265625 29.9921875 C-0.58167763 29.57605711 3.48723776 25.9492723 7.3984375 22.8203125 C9.18733962 28.18701885 7.34723003 33.64383235 5.3984375 38.8203125 C2.45739672 41.08736477 1.83193447 41.45889177 -1.6015625 41.8203125 C-2.46652344 41.91570312 -3.33148438 42.01109375 -4.22265625 42.109375 C-10.53048069 42.44182622 -15.46834331 41.61189485 -20.6015625 37.8203125 C-24.77101244 33.93804406 -27.30463179 29.65079487 -27.90234375 23.953125 C-27.92962932 16.94982768 -27.84576263 11.31516827 -22.83203125 5.9140625 C-16.48429826 -0.00887 -8.56397145 -3.88336243 0 0 Z " fill="#010101" transform="translate(203.6015625,28.1796875)"/>
<path d="M0 0 C3.80200661 -0.54797604 7.22327996 -0.79264495 11 0 C13.73315938 2.65049293 15.38763727 5.57117799 17 9 C17.29390625 8.3503125 17.5878125 7.700625 17.890625 7.03125 C19.38848265 4.24213575 20.68475526 2.17531237 23 0 C27.10033465 -0.79815674 30.87499283 -0.54065628 35 0 C34.67261471 3.47846873 33.58767425 5.86160332 31.75 8.7578125 C24.63010512 19.98464275 22.50041691 28.7463545 23 42 C21.18757948 42.02687279 19.37504767 42.04633715 17.5625 42.0625 C16.55316406 42.07410156 15.54382813 42.08570313 14.50390625 42.09765625 C12 42 12 42 11 41 C11.02320313 39.81664062 11.04640625 38.63328125 11.0703125 37.4140625 C11.32874235 24.06658681 7.4556284 15.64824095 -0.11962891 4.78320312 C-1 3 -1 3 0 0 Z " fill="#F75B2B" transform="translate(209,28)"/>
<path d="M0 0 C0.9075 0.00257812 1.815 0.00515625 2.75 0.0078125 C4.11125 0.00394531 4.11125 0.00394531 5.5 0 C7.75 0.1328125 7.75 0.1328125 8.75 1.1328125 C8.83783542 3.35136514 8.85694609 5.57269746 8.84765625 7.79296875 C8.8462413 8.45743515 8.84482635 9.12190155 8.84336853 9.8065033 C8.83775518 11.93615149 8.82520054 14.06569589 8.8125 16.1953125 C8.80748671 17.63606619 8.80292351 19.07682153 8.79882812 20.51757812 C8.78778145 24.05602352 8.77050792 27.59440789 8.75 31.1328125 C10.14025391 31.11541016 10.14025391 31.11541016 11.55859375 31.09765625 C12.75613281 31.08863281 13.95367187 31.07960938 15.1875 31.0703125 C16.38246094 31.05871094 17.57742187 31.04710938 18.80859375 31.03515625 C21.75 31.1328125 21.75 31.1328125 22.75 32.1328125 C22.8479057 33.63019374 22.87974864 35.13224142 22.875 36.6328125 C22.87886719 37.85484375 22.87886719 37.85484375 22.8828125 39.1015625 C22.75 41.1328125 22.75 41.1328125 21.75 42.1328125 C19.98140807 42.23227703 18.20888549 42.26361467 16.4375 42.265625 C15.36242187 42.26691406 14.28734375 42.26820312 13.1796875 42.26953125 C12.04789063 42.26566406 10.91609375 42.26179688 9.75 42.2578125 C8.61820313 42.26167969 7.48640625 42.26554687 6.3203125 42.26953125 C5.24523437 42.26824219 4.17015625 42.26695313 3.0625 42.265625 C2.06863281 42.26449707 1.07476562 42.26336914 0.05078125 42.26220703 C-2.25 42.1328125 -2.25 42.1328125 -3.25 41.1328125 C-3.35110353 38.1874568 -3.38969279 35.2660369 -3.3828125 32.3203125 C-3.38376923 31.43625732 -3.38472595 30.55220215 -3.38571167 29.64135742 C-3.38639351 27.76839121 -3.38453893 25.89542264 -3.38037109 24.02246094 C-3.37502289 21.14512862 -3.38031593 18.26795242 -3.38671875 15.390625 C-3.38605797 13.57552049 -3.38477681 11.76041607 -3.3828125 9.9453125 C-3.38483673 9.07865967 -3.38686096 8.21200684 -3.38894653 7.3190918 C-3.3608025 0.1983807 -3.3608025 0.1983807 0 0 Z " fill="#020101" transform="translate(138.25,27.8671875)"/>
<path d="M0 0 C26.73 0 53.46 0 81 0 C81 0.33 81 0.66 81 1 C79.35 1 77.7 1 76 1 C76 4.3 76 7.6 76 11 C76.99 11.33 77.98 11.66 79 12 C60.52 12 42.04 12 23 12 C22.34 10.68 21.68 9.36 21 8 C20.01 8.33 19.02 8.66 18 9 C18 6.69 18 4.38 18 2 C16.68 2 15.36 2 14 2 C14.33 4.31 14.66 6.62 15 9 C13.35 8.67 11.7 8.34 10 8 C10.33 5.69 10.66 3.38 11 1 C7.7 1.33 4.4 1.66 1 2 C0.67 1.34 0.34 0.68 0 0 Z M20 1 C20.66 2.65 21.32 4.3 22 6 C22.33 6 22.66 6 23 6 C23 4.35 23 2.7 23 1 C22.01 1 21.02 1 20 1 Z M25 1 C25 4.3 25 7.6 25 11 C25.99 11 26.98 11 28 11 C28 7.7 28 4.4 28 1 C27.01 1 26.02 1 25 1 Z M32 1 C32.99 1.495 32.99 1.495 34 2 C34.125 8.75 34.125 8.75 33 11 C35.97 11 38.94 11 42 11 C42 7.7 42 4.4 42 1 C38.7 1 35.4 1 32 1 Z M48 1 C48 1.66 48 2.32 48 3 C46.68 3 45.36 3 44 3 C44 3.66 44 4.32 44 5 C45.32 5 46.64 5 48 5 C48 5.66 48 6.32 48 7 C46.68 7 45.36 7 44 7 C44 7.66 44 8.32 44 9 C45.32 9 46.64 9 48 9 C48 9.66 48 10.32 48 11 C48.66 11 49.32 11 50 11 C50.99 7.7 51.98 4.4 53 1 C51.35 1 49.7 1 48 1 Z M55 1 C55.99 4.3 56.98 7.6 58 11 C58.66 11 59.32 11 60 11 C60 7.7 60 4.4 60 1 C58.35 1 56.7 1 55 1 Z M66 1 C65.979375 2.27875 65.95875 3.5575 65.9375 4.875 C65.92589844 5.59429687 65.91429687 6.31359375 65.90234375 7.0546875 C65.87350758 9.08185404 65.87350758 9.08185404 67 11 C67.66 11 68.32 11 69 11 C69.33 7.7 69.66 4.4 70 1 C68.68 1 67.36 1 66 1 Z M72 1 C72.33 2.65 72.66 4.3 73 6 C73.33 6 73.66 6 74 6 C74 4.35 74 2.7 74 1 C73.34 1 72.68 1 72 1 Z M30 3 C30 4.98 30 6.96 30 9 C30.99 8.67 31.98 8.34 33 8 C32.67 6.35 32.34 4.7 32 3 C31.34 3 30.68 3 30 3 Z M62 3 C62 3.66 62 4.32 62 5 C62.99 4.67 63.98 4.34 65 4 C64.01 3.67 63.02 3.34 62 3 Z M71 6 C71 7.65 71 9.3 71 11 C71.99 10.67 72.98 10.34 74 10 C73.01 8.68 72.02 7.36 71 6 Z M62 7 C62 8.32 62 9.64 62 11 C62.99 10.67 63.98 10.34 65 10 C64.01 9.01 63.02 8.02 62 7 Z M53 9 C52.67 9.66 52.34 10.32 52 11 C53.32 10.67 54.64 10.34 56 10 C55.01 9.67 54.02 9.34 53 9 Z " fill="#68696A" transform="translate(163,126)"/>
<path d="M0 0 C1.65322266 0.01740234 1.65322266 0.01740234 3.33984375 0.03515625 C4.99693359 0.04869141 4.99693359 0.04869141 6.6875 0.0625 C7.54214844 0.07410156 8.39679688 0.08570312 9.27734375 0.09765625 C9.30199997 4.35180248 9.32018274 8.60591123 9.33227539 12.86010742 C9.33731476 14.30835698 9.34414628 15.75660142 9.3527832 17.20483398 C9.36486622 19.28240213 9.37057586 21.35990322 9.375 23.4375 C9.38023682 24.68909912 9.38547363 25.94069824 9.39086914 27.23022461 C9.27734375 30.09765625 9.27734375 30.09765625 8.27734375 31.09765625 C6.42446873 31.16992127 4.56900497 31.18146845 2.71484375 31.16015625 C1.70292969 31.15113281 0.69101563 31.14210938 -0.3515625 31.1328125 C-1.13402344 31.12121094 -1.91648438 31.10960938 -2.72265625 31.09765625 C-4.12566758 28.2916336 -3.85241045 25.94747258 -3.85546875 22.8125 C-3.85675781 21.56017578 -3.85804688 20.30785156 -3.859375 19.01757812 C-3.85550781 17.70337891 -3.85164062 16.38917969 -3.84765625 15.03515625 C-3.85152344 13.71708984 -3.85539063 12.39902344 -3.859375 11.04101562 C-3.85808594 9.78998047 -3.85679687 8.53894531 -3.85546875 7.25 C-3.85434082 6.09491943 -3.85321289 4.93983887 -3.85205078 3.74975586 C-3.67592314 0.13980391 -3.62150788 0.12989627 0 0 Z " fill="#F85C2B" transform="translate(233.72265625,87.90234375)"/>
<path d="M0 0 C4.73278416 1.57759472 5.93393849 5.58928614 8.25 9.8125 C8.72179687 10.63298828 9.19359375 11.45347656 9.6796875 12.29882812 C10.12054688 13.09353516 10.56140625 13.88824219 11.015625 14.70703125 C11.42071289 15.4338208 11.82580078 16.16061035 12.24316406 16.90942383 C13.15087124 19.41674529 12.98054705 20.5481439 12 23 C10.22265625 24.703125 10.22265625 24.703125 8.0625 26.25 C7.35222656 26.77078125 6.64195312 27.2915625 5.91015625 27.828125 C4 29 4 29 2 29 C0.4921875 27.25 0.4921875 27.25 -1.125 25 C-1.66382812 24.2575 -2.20265625 23.515 -2.7578125 22.75 C-3.37269531 21.88375 -3.37269531 21.88375 -4 21 C-6.73806872 22.27379719 -8.96597375 23.65243188 -11.25 25.625 C-12.1575 26.40875 -13.065 27.1925 -14 28 C-14.66 27.67 -15.32 27.34 -16 27 C-15.38066254 23.91232592 -14.36478361 21.72521745 -12.63671875 19.1015625 C-12.16169922 18.37453125 -11.68667969 17.6475 -11.19726562 16.8984375 C-10.69904297 16.14820312 -10.20082031 15.39796875 -9.6875 14.625 C-9.20087891 13.8825 -8.71425781 13.14 -8.21289062 12.375 C-5.49626114 8.23607056 -2.75074347 4.11631445 0 0 Z " fill="#F05C2D" transform="translate(126,74)"/>
<path d="M0 0 C2.9375 1.3125 2.9375 1.3125 6 3 C6.33 3.99 6.66 4.98 7 6 C6.67 6.66 6.34 7.32 6 8 C6.99 7.67 7.98 7.34 9 7 C9.73323796 4.98491642 9.73323796 4.98491642 10 3 C10.33 3.99 10.66 4.98 11 6 C12.65 5.34 14.3 4.68 16 4 C15.67 5.32 15.34 6.64 15 8 C15.99 8 16.98 8 18 8 C18 6.35 18 4.7 18 3 C19.98 3 21.96 3 24 3 C24.28875 3.639375 24.5775 4.27875 24.875 4.9375 C25.82823451 7.15206079 25.82823451 7.15206079 28 8 C28 7.01 28 6.02 28 5 C29.98 5.33 31.96 5.66 34 6 C34 6.66 34 7.32 34 8 C34.99 8 35.98 8 37 8 C37 7.34 37 6.68 37 6 C37.66 6 38.32 6 39 6 C39 6.66 39 7.32 39 8 C41.31 8 43.62 8 46 8 C46 7.01 46 6.02 46 5 C46.66 5 47.32 5 48 5 C48 5.99 48 6.98 48 8 C48.66 8 49.32 8 50 8 C50.33 7.34 50.66 6.68 51 6 C51 6.66 51 7.32 51 8 C51.99 7.67 52.98 7.34 54 7 C54.33 6.01 54.66 5.02 55 4 C55.99 4.495 55.99 4.495 57 5 C57 5.99 57 6.98 57 8 C58.32 7.67 59.64 7.34 61 7 C61 6.34 61 5.68 61 5 C62.32 4.67 63.64 4.34 65 4 C65 4.99 65 5.98 65 7 C66.32 7.33 67.64 7.66 69 8 C69.33 6.68 69.66 5.36 70 4 C70.495 4.99 70.495 4.99 71 6 C72.32 6 73.64 6 75 6 C75 6.66 75 7.32 75 8 C75.99 8 76.98 8 78 8 C77.505 6.515 77.505 6.515 77 5 C79.97 5.495 79.97 5.495 83 6 C83 6.66 83 7.32 83 8 C84.65 8 86.3 8 88 8 C88 7.01 88 6.02 88 5 C88.66 5 89.32 5 90 5 C90 5.99 90 6.98 90 8 C92.64 8 95.28 8 98 8 C98.33 6.35 98.66 4.7 99 3 C99.495 3.99 99.495 3.99 100 5 C101.98 5 103.96 5 106 5 C106 5.99 106 6.98 106 8 C106.66 8 107.32 8 108 8 C108 7.34 108 6.68 108 6 C108.66 6 109.32 6 110 6 C110 6.66 110 7.32 110 8 C111.485 8.495 111.485 8.495 113 9 C101.2710824 9.2042413 89.54193886 9.39080475 77.8125 9.5625 C76.94332066 9.57523327 76.07414131 9.58796654 75.1786232 9.60108566 C44.4270363 10.04560841 13.74481985 9.90856165 -17 9 C-16.01 8.67 -15.02 8.34 -14 8 C-14 6.35 -14 4.7 -14 3 C-13.34 3 -12.68 3 -12 3 C-12 4.65 -12 6.3 -12 8 C-11.01 8 -10.02 8 -9 8 C-8.67 5.69 -8.34 3.38 -8 1 C-7.67 1.66 -7.34 2.32 -7 3 C-4.97536745 3.65213292 -4.97536745 3.65213292 -3 4 C-3 5.32 -3 6.64 -3 8 C-2.01 7.67 -1.02 7.34 0 7 C0 6.34 0 5.68 0 5 C1.32 5.33 2.64 5.66 4 6 C4 5.34 4 4.68 4 4 C2.68 3.67 1.36 3.34 0 3 C0 2.01 0 1.02 0 0 Z M-7 5 C-7 5.99 -7 6.98 -7 8 C-6.34 7.67 -5.68 7.34 -5 7 C-5.66 6.34 -6.32 5.68 -7 5 Z M21 5 C21 5.99 21 6.98 21 8 C21.66 8 22.32 8 23 8 C22.67 7.01 22.34 6.02 22 5 C21.67 5 21.34 5 21 5 Z M101 6 C100.67 6.66 100.34 7.32 100 8 C101.32 8 102.64 8 104 8 C104 7.34 104 6.68 104 6 C103.01 6 102.02 6 101 6 Z " fill="#4A4B4A" transform="translate(73,129)"/>
<path d="M0 0 C1.32 0 2.64 0 4 0 C3.8125 2.375 3.8125 2.375 3 5 C1.94232422 5.40412109 1.94232422 5.40412109 0.86328125 5.81640625 C-2.96309041 7.39811241 -5.55981842 9.82583671 -8.625 12.5625 C-9.86500656 13.64814006 -11.10590277 14.73276474 -12.34765625 15.81640625 C-13.26828857 16.62295654 -13.26828857 16.62295654 -14.20751953 17.44580078 C-19.22232764 21.79397136 -24.36199572 26.03397643 -29.68359375 30 C-31.92341387 31.93387505 -32.93185302 33.28108042 -34 36 C-35.81242052 36.02687279 -37.62495233 36.04633715 -39.4375 36.0625 C-40.44683594 36.07410156 -41.45617187 36.08570313 -42.49609375 36.09765625 C-45 36 -45 36 -46 35 C-46.71717226 31.29461001 -46.99848193 29.55644852 -46 26 C-42.74114472 21.83828154 -39.11840229 18.30832616 -35 15 C-34.34 15 -33.68 15 -33 15 C-32.67 19.29 -32.34 23.58 -32 28 C-30.56720703 26.74896484 -30.56720703 26.74896484 -29.10546875 25.47265625 C-22.21400876 19.46989777 -15.29867625 13.52772486 -8.171875 7.8046875 C-6.01634205 6.08237651 -6.01634205 6.08237651 -4.328125 4.2578125 C-3 3 -3 3 -1 3 C-0.67 2.01 -0.34 1.02 0 0 Z " fill="#CC5832" transform="translate(153,83)"/>
<path d="M0 0 C3.63 0 7.26 0 11 0 C11 9.57 11 19.14 11 29 C7.37 29 3.74 29 0 29 C-0.19678262 25.85450557 -0.38263821 22.70897113 -0.5625 19.5625 C-0.64661133 18.24475586 -0.64661133 18.24475586 -0.73242188 16.90039062 C-1.05235124 11.12033342 -0.78786247 5.73680599 0 0 Z " fill="#F15C2F" transform="translate(163,40)"/>
<path d="M0 0 C2.43929003 3.65893505 2.26289673 6.40278333 2.1875 10.625 C2.18685547 11.31851563 2.18621094 12.01203125 2.18554688 12.7265625 C2.14043257 17.85956743 2.14043257 17.85956743 1 19 C-1.01964199 19.07244053 -3.04167124 19.08377188 -5.0625 19.0625 C-6.16722656 19.05347656 -7.27195313 19.04445313 -8.41015625 19.03515625 C-9.69212891 19.01775391 -9.69212891 19.01775391 -11 19 C-12.21469085 7.7809803 -12.21469085 7.7809803 -9.32421875 3.54296875 C-3.92107054 -1.30702351 -3.92107054 -1.30702351 0 0 Z " fill="#E65B31" transform="translate(143,100)"/>
<path d="M0 0 C0.19493195 2.27020744 0.38070418 4.54120289 0.5625 6.8125 C0.66691406 8.07707031 0.77132812 9.34164062 0.87890625 10.64453125 C1 14 1 14 0 17 C-3.3 17 -6.6 17 -10 17 C-10.83625036 8.27910338 -10.83625036 8.27910338 -8.546875 4.77734375 C-3.8774384 0 -3.8774384 0 0 0 Z " fill="#F75A29" transform="translate(119,100)"/>
<path d="M0 0 C22.77 0 45.54 0 69 0 C66.67378885 1.55080743 64.49906822 2.79077344 62 4 C61.34 4.33 60.68 4.66 60 5 C60 3.68 60 2.36 60 1 C58.66195312 1.24363281 58.66195312 1.24363281 57.296875 1.4921875 C51.64187265 2.2980111 45.94974871 2.14467692 40.25 2.125 C39.11433594 2.12886719 37.97867188 2.13273438 36.80859375 2.13671875 C35.72191406 2.13542969 34.63523438 2.13414062 33.515625 2.1328125 C32.52852539 2.13168457 31.54142578 2.13055664 30.52441406 2.12939453 C28 2 28 2 25 1 C25 2.32 25 3.64 25 5 C24.34 5 23.68 5 23 5 C23 3.68 23 2.36 23 1 C22.01 1.495 22.01 1.495 21 2 C21.33 2.66 21.66 3.32 22 4 C20.02 4.99 20.02 4.99 18 6 C18 4.68 18 3.36 18 2 C16.68 2 15.36 2 14 2 C14.33 4.31 14.66 6.62 15 9 C13.35 8.67 11.7 8.34 10 8 C10.33 5.69 10.66 3.38 11 1 C7.7 1.33 4.4 1.66 1 2 C0.67 1.34 0.34 0.68 0 0 Z " fill="#A9ABAE" transform="translate(163,126)"/>
<path d="M0 0 C13.2 0 26.4 0 40 0 C41 3 41 3 41 4 C41.66 4.66 42.32 5.32 43 6 C40.69 6 38.38 6 36 6 C36 4.35 36 2.7 36 1 C35.34 1 34.68 1 34 1 C34 2.98 34 4.96 34 7 C33.34 7 32.68 7 32 7 C32 5.02 32 3.04 32 1 C31.01 1 30.02 1 29 1 C29 2.65 29 4.3 29 6 C28.01 6.495 28.01 6.495 27 7 C27 5.02 27 3.04 27 1 C26.01 1.33 25.02 1.66 24 2 C23.67 2.99 23.34 3.98 23 5 C20.0280615 3.87548273 17.66559313 2.77706209 15 1 C15 2.98 15 4.96 15 7 C14.38125 6.814375 13.7625 6.62875 13.125 6.4375 C10.95839822 5.76313824 10.95839822 5.76313824 9 7 C9 5.02 9 3.04 9 1 C8.01 1 7.02 1 6 1 C6 2.65 6 4.3 6 6 C5.34 6 4.68 6 4 6 C4 4.35 4 2.7 4 1 C2.68 0.67 1.36 0.34 0 0 Z M11 1 C11.66 2.32 12.32 3.64 13 5 C13.33 3.68 13.66 2.36 14 1 C13.01 1 12.02 1 11 1 Z " fill="#6F7071" transform="translate(55,126)"/>
<path d="M0 0 C4.27070558 -0.08692074 8.54118458 -0.14036515 12.8125 -0.1875 C14.63491211 -0.22520508 14.63491211 -0.22520508 16.49414062 -0.26367188 C18.23920898 -0.27817383 18.23920898 -0.27817383 20.01953125 -0.29296875 C21.09307861 -0.3086792 22.16662598 -0.32438965 23.27270508 -0.34057617 C26 0 26 0 27.8737793 1.51831055 C28.24543213 2.00726807 28.61708496 2.49622559 29 3 C28.01 3 27.02 3 26 3 C26 4.65 26 6.3 26 8 C25.34 8 24.68 8 24 8 C24 6.35 24 4.7 24 3 C23.34 3 22.68 3 22 3 C22 2.34 22 1.68 22 1 C21.01 1.33 20.02 1.66 19 2 C19.185625 2.5775 19.37125 3.155 19.5625 3.75 C20.04023546 6.20692525 19.75729364 7.64397534 19 10 C17.02 8.35 15.04 6.7 13 5 C13.33 4.01 13.66 3.02 14 2 C13.01 1.67 12.02 1.34 11 1 C11 1.66 11 2.32 11 3 C9.68 3 8.36 3 7 3 C7 3.66 7 4.32 7 5 C8.32 5 9.64 5 11 5 C11 5.66 11 6.32 11 7 C9.02 7.33 7.04 7.66 5 8 C5 5.69 5 3.38 5 1 C4.34 1 3.68 1 3 1 C2.67 1.99 2.34 2.98 2 4 C1.34 4 0.68 4 0 4 C0 2.68 0 1.36 0 0 Z M16 3 C16 3.66 16 4.32 16 5 C16.66 4.67 17.32 4.34 18 4 C17.34 3.67 16.68 3.34 16 3 Z " fill="#8E9194" transform="translate(137,126)"/>
<path d="M0 0 C0.66 0.33 1.32 0.66 2 1 C0.3171521 6.56634304 0.3171521 6.56634304 -1.53125 9.09375 C-3.64249202 13.27131399 -3.56688006 17.19103324 -3.6875 21.8125 C-3.72166016 22.69615234 -3.75582031 23.57980469 -3.79101562 24.49023438 C-3.87310433 26.65972167 -3.93823879 28.8298389 -4 31 C-5.81242052 31.02687279 -7.62495233 31.04633715 -9.4375 31.0625 C-10.44683594 31.07410156 -11.45617187 31.08570312 -12.49609375 31.09765625 C-15 31 -15 31 -16 30 C-16.17100842 26.13520971 -16.29699095 22.27644807 -16.34179688 18.40820312 C-16.54720579 12.27937444 -17.92334663 8.31198637 -21 3 C-18.525 3.495 -18.525 3.495 -16 4 C-16 5.65 -16 7.3 -16 9 C-15.34 9.33 -14.68 9.66 -14 10 C-12.90693209 14.41154356 -13.0241476 18.37405163 -13.4375 22.875 C-13.53933594 24.02742188 -13.64117187 25.17984375 -13.74609375 26.3671875 C-13.87177734 27.67042969 -13.87177734 27.67042969 -14 29 C-11.03 29.33 -8.06 29.66 -5 30 C-5 23.07 -5 16.14 -5 9 C-4.34 9 -3.68 9 -3 9 C-2.87625 8.443125 -2.7525 7.88625 -2.625 7.3125 C-1.94023145 4.77885636 -1.00866237 2.42078968 0 0 Z " fill="#DE5C31" transform="translate(236,39)"/>
<path d="M0 0 C1.61841797 0.08701172 1.61841797 0.08701172 3.26953125 0.17578125 C4.35621094 0.22089844 5.44289062 0.26601563 6.5625 0.3125 C7.39394531 0.37050781 8.22539062 0.42851562 9.08203125 0.48828125 C8.35961927 4.60532819 7.05849414 7.79315497 5.08203125 11.48828125 C3.08203125 8.48828125 3.08203125 8.48828125 3.08203125 6.48828125 C2.14230469 7.04708984 2.14230469 7.04708984 1.18359375 7.6171875 C0.36632812 8.09027344 -0.4509375 8.56335937 -1.29296875 9.05078125 C-2.51113281 9.76427734 -2.51113281 9.76427734 -3.75390625 10.4921875 C-4.46804687 10.82089844 -5.1821875 11.14960937 -5.91796875 11.48828125 C-6.57796875 11.15828125 -7.23796875 10.82828125 -7.91796875 10.48828125 C-4.28889045 0.71768582 -4.28889045 0.71768582 0 0 Z " fill="#ED5A2E" transform="translate(234.91796875,27.51171875)"/>
<path d="M0 0 C0.33 0 0.66 0 1 0 C1 7.92 1 15.84 1 24 C1.99 23.67 2.98 23.34 4 23 C4 23.66 4 24.32 4 25 C6.64 25.33 9.28 25.66 12 26 C12 17.42 12 8.84 12 0 C12.33 0 12.66 0 13 0 C13.02465746 4.1117256 13.04283959 8.22342278 13.05493164 12.33520508 C13.0599708 13.73495228 13.06680216 15.1346942 13.07543945 16.53442383 C13.0875232 18.54245777 13.09269807 20.55052957 13.09765625 22.55859375 C13.10289307 23.76829834 13.10812988 24.97800293 13.11352539 26.22436523 C13 29 13 29 12 30 C10.14712498 30.07226502 8.29166122 30.0838122 6.4375 30.0625 C5.42558594 30.05347656 4.41367188 30.04445313 3.37109375 30.03515625 C2.58863281 30.02355469 1.80617187 30.01195313 1 30 C-0.40912096 27.18175808 -0.11183553 24.82748718 -0.09765625 21.6796875 C-0.09443359 20.42285156 -0.09121094 19.16601562 -0.08789062 17.87109375 C-0.07951172 16.55238281 -0.07113281 15.23367187 -0.0625 13.875 C-0.05748489 12.53515789 -0.05292201 11.195314 -0.04882812 9.85546875 C-0.03701086 6.57026794 -0.02053617 3.28515603 0 0 Z " fill="#D44D20" transform="translate(230,89)"/>
<path d="M0 0 C3.625 -0.1875 3.625 -0.1875 7 0 C7 0.66 7 1.32 7 2 C7.66 2.33 8.32 2.66 9 3 C8.01 3.495 8.01 3.495 7 4 C6.09656316 5.88263881 6.09656316 5.88263881 5.375 8.0625 C5.11460938 8.79597656 4.85421875 9.52945313 4.5859375 10.28515625 C4.39257812 10.85105469 4.19921875 11.41695312 4 12 C4.99 12 5.98 12 7 12 C7 12.66 7 13.32 7 14 C3.06329512 15.31223496 0.87511856 14.24296256 -3 13 C-2.88557539 11.39504433 -2.75805306 9.79101881 -2.625 8.1875 C-2.55539063 7.29417969 -2.48578125 6.40085937 -2.4140625 5.48046875 C-2 3 -2 3 0 0 Z " fill="#F95C2D" transform="translate(122,80)"/>
<path d="M0 0 C1.8125 1.125 1.8125 1.125 3 3 C3.5 6 3.5 6 3 9 C0.8125 11 0.8125 11 -2 12 C-4.43028072 11.33719617 -6.2010972 10.7989028 -8 9 C-8.45875252 3.72434608 -8.45875252 3.72434608 -6.8125 1.125 C-4.34492892 -0.40659584 -2.85480169 -0.42822025 0 0 Z " fill="#F35E31" transform="translate(239,74)"/>
<path d="M0 0 C2.6465335 2.6465335 3.59941997 5.56221264 5 9 C5 7.35 5 5.7 5 4 C6.65 3.67 8.3 3.34 10 3 C8.41173222 8.55893722 4.79249896 11.19838777 0.0625 14.25 C-4.70445557 15.98343839 -9.11263227 16.33291847 -14 15 C-10.96474514 12.97649676 -9.80573798 12.67875982 -6.3125 12.375 C-5.50425781 12.30023438 -4.69601563 12.22546875 -3.86328125 12.1484375 C-2.94095703 12.07496094 -2.94095703 12.07496094 -2 12 C-1.67 10.68 -1.34 9.36 -1 8 C-0.67 8.99 -0.34 9.98 0 11 C0.66 10.67 1.32 10.34 2 10 C1.67 8.02 1.34 6.04 1 4 C0.44828125 4.49113281 -0.1034375 4.98226562 -0.671875 5.48828125 C-3.46370069 7.30109424 -4.96185741 7.3172951 -8.25 7.1875 C-9.14203125 7.16042969 -10.0340625 7.13335937 -10.953125 7.10546875 C-11.62859375 7.07066406 -12.3040625 7.03585938 -13 7 C-12.67 6.34 -12.34 5.68 -12 5 C-10.948125 5.103125 -9.89625 5.20625 -8.8125 5.3125 C-4.84478007 5.36068704 -4.84478007 5.36068704 -2.0625 2.5 C-1.381875 1.675 -0.70125 0.85 0 0 Z " fill="#E5603A" transform="translate(120,54)"/>
<path d="M0 0 C0.66 0.66 1.32 1.32 2 2 C1.96712417 4.72869407 1.43602229 7.2966618 1 10 C-0.65 10.33 -2.3 10.66 -4 11 C-4 12.65 -4 14.3 -4 16 C-6 15 -6 15 -6.6328125 13.15234375 C-6.79523438 12.42144531 -6.95765625 11.69054687 -7.125 10.9375 C-7.29257813 10.20402344 -7.46015625 9.47054687 -7.6328125 8.71484375 C-7.75398438 8.14894531 -7.87515625 7.58304688 -8 7 C-7.34 7 -6.68 7 -6 7 C-6 4.69 -6 2.38 -6 0 C-3 -1 -3 -1 0 0 Z " fill="#FB5B29" transform="translate(129,47)"/>
<path d="M0 0 C2.9375 0.875 2.9375 0.875 4.9375 3.875 C4.6133631 7.19740324 4.32973697 8.48276303 1.9375 10.875 C-0.90852594 11.23987512 -2.4489306 11.27699375 -4.875 9.6875 C-6.48775784 7.22592224 -6.4959014 5.76434264 -6.0625 2.875 C-4.29035152 -0.0785808 -3.47140412 -0.14168996 0 0 Z " fill="#E35E36" transform="translate(169.0625,27.125)"/>
<path d="M0 0 C1.32 0 2.64 0 4 0 C3.8125 2.375 3.8125 2.375 3 5 C2.30261719 5.26167969 1.60523438 5.52335937 0.88671875 5.79296875 C-3.08546617 7.4538688 -5.82100648 10.08116073 -9 12.9375 C-12.83400737 16.35779504 -16.45530715 19.529684 -21 22 C-20.54779683 17.6488006 -17.98657604 15.84249372 -14.8125 13.0625 C-14.31435791 12.62373535 -13.81621582 12.1849707 -13.30297852 11.73291016 C-11.87581786 10.48039471 -10.43816401 9.23986563 -9 8 C-8.01386719 7.12794922 -8.01386719 7.12794922 -7.0078125 6.23828125 C-3.27775788 3 -3.27775788 3 -1 3 C-0.67 2.01 -0.34 1.02 0 0 Z " fill="#CB542C" transform="translate(153,83)"/>
<path d="M0 0 C1.9453125 -0.29296875 1.9453125 -0.29296875 4.125 -0.1875 C5.40375 -0.125625 6.6825 -0.06375 8 0 C7.34 0.66 6.68 1.32 6 2 C6 3.32 6 4.64 6 6 C6.66 6 7.32 6 8 6 C8 5.34 8 4.68 8 4 C8.66 4 9.32 4 10 4 C9.67 4.99 9.34 5.98 9 7 C6.9375 7.6875 6.9375 7.6875 5 8 C4.34 5.69 3.68 3.38 3 1 C2.34 1 1.68 1 1 1 C1 3.31 1 5.62 1 8 C-0.32 8 -1.64 8 -3 8 C-3.66 8.99 -4.32 9.98 -5 11 C-5.33 8.69 -5.66 6.38 -6 4 C-5.38125 3.896875 -4.7625 3.79375 -4.125 3.6875 C-1.63473516 3.12474627 -1.63473516 3.12474627 0 0 Z " fill="#6F7274" transform="translate(129,126)"/>
<path d="M0 0 C0.33 0.66 0.66 1.32 1 2 C3.02463255 2.65213292 3.02463255 2.65213292 5 3 C5 4.32 5 5.64 5 7 C6.65 6.67 8.3 6.34 10 6 C10.33 6.66 10.66 7.32 11 8 C4.4 8 -2.2 8 -9 8 C-8.01 7.67 -7.02 7.34 -6 7 C-6 5.35 -6 3.7 -6 2 C-5.34 2 -4.68 2 -4 2 C-4 3.65 -4 5.3 -4 7 C-3.01 7 -2.02 7 -1 7 C-0.67 4.69 -0.34 2.38 0 0 Z M1 4 C1 4.99 1 5.98 1 7 C1.66 6.67 2.32 6.34 3 6 C2.34 5.34 1.68 4.68 1 4 Z " fill="#434442" transform="translate(65,130)"/>
<path d="M0 0 C0.33 0.66 0.66 1.32 1 2 C2.98 2 4.96 2 7 2 C7 2.99 7 3.98 7 5 C7.66 5 8.32 5 9 5 C9 4.34 9 3.68 9 3 C9.66 3 10.32 3 11 3 C11 3.66 11 4.32 11 5 C11.99 5.33 12.98 5.66 14 6 C4.43 6 -5.14 6 -15 6 C-13.68 5.67 -12.36 5.34 -11 5 C-11 4.01 -11 3.02 -11 2 C-10.34 2 -9.68 2 -9 2 C-9 2.99 -9 3.98 -9 5 C-6.36 5 -3.72 5 -1 5 C-0.67 3.35 -0.34 1.7 0 0 Z M2 3 C1.67 3.66 1.34 4.32 1 5 C2.32 5 3.64 5 5 5 C5 4.34 5 3.68 5 3 C4.01 3 3.02 3 2 3 Z " fill="#585859" transform="translate(172,132)"/>
<path d="M0 0 C0.33 0 0.66 0 1 0 C1.02465746 4.1117256 1.04283959 8.22342278 1.05493164 12.33520508 C1.0599708 13.73495228 1.06680216 15.1346942 1.07543945 16.53442383 C1.0875232 18.54245777 1.09269807 20.55052957 1.09765625 22.55859375 C1.10289307 23.76829834 1.10812988 24.97800293 1.11352539 26.22436523 C1 29 1 29 0 30 C-1.85287502 30.07226502 -3.70833878 30.0838122 -5.5625 30.0625 C-6.57441406 30.05347656 -7.58632812 30.04445313 -8.62890625 30.03515625 C-9.41136719 30.02355469 -10.19382813 30.01195313 -11 30 C-11.33 29.01 -11.66 28.02 -12 27 C-8.37 27.33 -4.74 27.66 -1 28 C-0.67 18.76 -0.34 9.52 0 0 Z " fill="#C65836" transform="translate(242,89)"/>
<path d="M0 0 C0.99 0.33 1.98 0.66 3 1 C1.92697779 3.5037185 1.20928969 4.84866745 -1.03125 6.46875 C-4.16117773 10.4929428 -3.67733403 14.78889611 -3.75 19.75 C-3.77964844 20.73355469 -3.80929688 21.71710938 -3.83984375 22.73046875 C-3.91042411 25.15372776 -3.96317701 27.57603154 -4 30 C-4.33 30 -4.66 30 -5 30 C-5.14547545 25.93787788 -5.23413226 21.87642713 -5.3125 17.8125 C-5.35439453 16.66201172 -5.39628906 15.51152344 -5.43945312 14.32617188 C-5.5608921 5.94688237 -5.5608921 5.94688237 -3.86474609 3.08349609 C-2.48046875 1.69921875 -2.48046875 1.69921875 0 0 Z " fill="#110704" transform="translate(152,89)"/>
<path d="M0 0 C0.66 0 1.32 0 2 0 C2.66 2.31 3.32 4.62 4 7 C3.01 7 2.02 7 1 7 C0.67 6.34 0.34 5.68 0 5 C-0.33 5.99 -0.66 6.98 -1 8 C-3.31 8.33 -5.62 8.66 -8 9 C-7.67 8.34 -7.34 7.68 -7 7 C-6.34 7 -5.68 7 -5 7 C-6.25541557 4.48916886 -7.50063488 4.12874554 -10 3 C-8.72125 2.87625 -7.4425 2.7525 -6.125 2.625 C-2.65209064 2.30957601 -2.65209064 2.30957601 0 0 Z " fill="#FB5929" transform="translate(119,58)"/>
<path d="M0 0 C5.28 0 10.56 0 16 0 C16 0.33 16 0.66 16 1 C14.35 1 12.7 1 11 1 C11 1.66 11 2.32 11 3 C9.68 3 8.36 3 7 3 C7 3.66 7 4.32 7 5 C8.32 5 9.64 5 11 5 C11 5.66 11 6.32 11 7 C9.02 7.33 7.04 7.66 5 8 C5 5.69 5 3.38 5 1 C4.34 1 3.68 1 3 1 C2.67 1.99 2.34 2.98 2 4 C1.34 4 0.68 4 0 4 C0 2.68 0 1.36 0 0 Z " fill="#7E8081" transform="translate(137,126)"/>
<path d="M0 0 C3.96 0 7.92 0 12 0 C12 0.33 12 0.66 12 1 C10.35 1 8.7 1 7 1 C7 2.98 7 4.96 7 7 C5.68 7 4.36 7 3 7 C2.67 7.66 2.34 8.32 2 9 C1.34 9 0.68 9 0 9 C0 6.03 0 3.06 0 0 Z M3 1 C3.33 2.65 3.66 4.3 4 6 C4.33 6 4.66 6 5 6 C5 4.35 5 2.7 5 1 C4.34 1 3.68 1 3 1 Z " fill="#86898F" transform="translate(232,126)"/>
<path d="M0 0 C1.65 1.32 3.3 2.64 5 4 C2.36 6.31 -0.28 8.62 -3 11 C-3.66 10.67 -4.32 10.34 -5 10 C-4.38545304 6.00544473 -2.29353263 3.25533664 0 0 Z " fill="#DE5C32" transform="translate(115,91)"/>
<path d="M0 0 C0.33 0 0.66 0 1 0 C1.06058594 0.80824219 1.12117188 1.61648437 1.18359375 2.44921875 C1.26738281 3.51785156 1.35117188 4.58648437 1.4375 5.6875 C1.55931641 7.27111328 1.55931641 7.27111328 1.68359375 8.88671875 C1.96463205 11.65199681 2.43369712 14.28269794 3 17 C3 17.66 3 18.32 3 19 C3.66 19 4.32 19 5 19 C6.625 21.5 6.625 21.5 8 24 C3.78220697 22.49364535 2.2252326 19.75987578 0 16 C-0.98275588 13.05173237 -1.13414725 11.07347496 -1.125 8 C-1.12757812 7.13375 -1.13015625 6.2675 -1.1328125 5.375 C-1 3 -1 3 0 0 Z " fill="#D85C38" transform="translate(92,41)"/>
<path d="M0 0 C5.28 0 10.56 0 16 0 C15.01 0.495 15.01 0.495 14 1 C14 2.65 14 4.3 14 6 C13.01 6.495 13.01 6.495 12 7 C12 5.02 12 3.04 12 1 C11.01 1.33 10.02 1.66 9 2 C8.67 2.99 8.34 3.98 8 5 C4.35446828 3.7191375 2.83328987 2.83328987 0 0 Z " fill="#717274" transform="translate(70,126)"/>
<path d="M0 0 C0.99 0.33 1.98 0.66 3 1 C1.02 2.32 -0.96 3.64 -3 5 C-2.67 5.66 -2.34 6.32 -2 7 C-2.66 7 -3.32 7 -4 7 C-4 7.66 -4 8.32 -4 9 C-5.65 9 -7.3 9 -9 9 C-9 9.99 -9 10.98 -9 12 C-9.66 12 -10.32 12 -11 12 C-9.60991124 6.74855359 -6.1957125 4.12699328 -2 1 C-1.34 0.67 -0.68 0.34 0 0 Z " fill="#DF5D33" transform="translate(104,29)"/>
<path d="M0 0 C2.97 0 5.94 0 9 0 C7.92643531 4.29425875 7.4915227 4.74740471 4 7 C2 5.75 2 5.75 0 4 C0 2.68 0 1.36 0 0 Z " fill="#F95B2A" transform="translate(210,29)"/>
<path d="M0 0 C0.66 0.33 1.32 0.66 2 1 C2 1.99 2 2.98 2 4 C3.32 3.67 4.64 3.34 6 3 C6 2.34 6 1.68 6 1 C7.32 0.67 8.64 0.34 10 0 C10 1.65 10 3.3 10 5 C5.05 5 0.1 5 -5 5 C-4.67 4.01 -4.34 3.02 -4 2 C-4 2.66 -4 3.32 -4 4 C-3.01 3.67 -2.02 3.34 -1 3 C-0.67 2.01 -0.34 1.02 0 0 Z " fill="#3E3F3C" transform="translate(128,133)"/>
<path d="M0 0 C0.33 0 0.66 0 1 0 C1.03738281 0.59167969 1.07476562 1.18335938 1.11328125 1.79296875 C1.51376901 6.60667451 2.0385035 10.00841777 5 14 C2.8125 14.75 2.8125 14.75 0 15 C-2.8125 13.0625 -2.8125 13.0625 -5 11 C-3.68 10.67 -2.36 10.34 -1 10 C-0.67 6.7 -0.34 3.4 0 0 Z " fill="#EC5C2C" transform="translate(101,45)"/>
<path d="M0 0 C1.32 0 2.64 0 4 0 C3.8125 2.375 3.8125 2.375 3 5 C0.5625 6.25 0.5625 6.25 -2 7 C-2.99 7.495 -2.99 7.495 -4 8 C-4.66 7.34 -5.32 6.68 -6 6 C-4.625 4.5 -4.625 4.5 -3 3 C-2.34 3 -1.68 3 -1 3 C-0.67 2.01 -0.34 1.02 0 0 Z " fill="#C04A28" transform="translate(153,83)"/>
<path d="M0 0 C3 1 3 1 4.75 3.9375 C5.36875 5.4534375 5.36875 5.4534375 6 7 C5.67 7.66 5.34 8.32 5 9 C4.34 8.67 3.68 8.34 3 8 C3 7.34 3 6.68 3 6 C1.02 6 -0.96 6 -3 6 C-1.125 1.125 -1.125 1.125 0 0 Z " fill="#E35B38" transform="translate(126,74)"/>
<path d="M0 0 C5.02166115 0.59078366 9.07444486 2.57676291 12.26953125 6.59765625 C13.22972711 8.03286066 14.12153366 9.51336465 15 11 C14.67 11.66 14.34 12.32 14 13 C12.5 11.6875 12.5 11.6875 11 10 C11 9.01 11 8.02 11 7 C10.401875 6.896875 9.80375 6.79375 9.1875 6.6875 C6.66608978 5.89505679 5.80534232 4.88056492 4 3 C1.90010348 1.82425289 1.90010348 1.82425289 0 1 C0 0.67 0 0.34 0 0 Z " fill="#D85833" transform="translate(116,29)"/>
<path d="M0 0 C0.99 0.33 1.98 0.66 3 1 C2.50168276 4.68754757 1.89932357 6.60490662 -1 9 C-1.12375 8.360625 -1.2475 7.72125 -1.375 7.0625 C-1.684375 6.0415625 -1.684375 6.0415625 -2 5 C-2.66 4.67 -3.32 4.34 -4 4 C-2.68 2.68 -1.36 1.36 0 0 Z " fill="#E9582B" transform="translate(140,99)"/>
<path d="M0 0 C0.598125 0.33 1.19625 0.66 1.8125 1 C4.05386471 2.20787988 4.05386471 2.20787988 7 2 C6.67 6.29 6.34 10.58 6 15 C5.34 15 4.68 15 4 15 C4.061875 13.96875 4.12375 12.9375 4.1875 11.875 C3.98710817 7.73356876 3.05974021 5.54275317 1 2 C0.67 1.34 0.34 0.68 0 0 Z " fill="#E45B34" transform="translate(117,39)"/>
<path d="M0 0 C1.98 0.495 1.98 0.495 4 1 C4.33 2.98 4.66 4.96 5 7 C3.02 7 1.04 7 -1 7 C-0.67 4.69 -0.34 2.38 0 0 Z " fill="#858688" transform="translate(215,128)"/>
<path d="M0 0 C1.65 0 3.3 0 5 0 C5.98120464 3.05263664 5.98120464 4.94736336 5 8 C3.02 6.35 1.04 4.7 -1 3 C-0.67 2.01 -0.34 1.02 0 0 Z M2 1 C2 1.66 2 2.32 2 3 C2.66 2.67 3.32 2.34 4 2 C3.34 1.67 2.68 1.34 2 1 Z " fill="#797C7C" transform="translate(151,128)"/>
<path d="M0 0 C0.66 0 1.32 0 2 0 C1.67 2.31 1.34 4.62 1 7 C-0.65 7 -2.3 7 -4 7 C-4.33 5.35 -4.66 3.7 -5 2 C-3.68 2 -2.36 2 -1 2 C-0.67 1.34 -0.34 0.68 0 0 Z " fill="#F05D2C" transform="translate(170,31)"/>
<path d="M0 0 C2.00720923 0.28674418 4.0085944 0.61866701 6 1 C5.67 2.32 5.34 3.64 5 5 C4.01 5 3.02 5 2 5 C1.34 5.99 0.68 6.98 0 8 C-0.38063221 5.6739143 -0.71269945 3.33944736 -1 1 C-0.67 0.67 -0.34 0.34 0 0 Z " fill="#5F6465" transform="translate(124,129)"/>
<path d="M0 0 C0.66 0.33 1.32 0.66 2 1 C2 1.66 2 2.32 2 3 C1.34 3 0.68 3 0 3 C0.185625 4.093125 0.37125 5.18625 0.5625 6.3125 C1 10 1 10 0 13 C2.97 13 5.94 13 9 13 C9 13.33 9 13.66 9 14 C5.7 14 2.4 14 -1 14 C-1.22142255 12.04310341 -1.4267568 10.08438048 -1.625 8.125 C-1.74101562 7.03445312 -1.85703125 5.94390625 -1.9765625 4.8203125 C-1.98429688 3.88960938 -1.99203125 2.95890625 -2 2 C-1.34 1.34 -0.68 0.68 0 0 Z " fill="#E95628" transform="translate(134,104)"/>
<path d="M0 0 C1.32 0 2.64 0 4 0 C4 1.32 4 2.64 4 4 C4.99 4.33 5.98 4.66 7 5 C3.04 5 -0.92 5 -5 5 C-4.34 4.67 -3.68 4.34 -3 4 C-3 3.34 -3 2.68 -3 2 C-1.68 2.33 -0.36 2.66 1 3 C0.67 2.01 0.34 1.02 0 0 Z " fill="#555B5D" transform="translate(235,133)"/>
<path d="M0 0 C1.98 0 3.96 0 6 0 C6 1.32 6 2.64 6 4 C4.35 4.33 2.7 4.66 1 5 C1 5.99 1 6.98 1 8 C0.34 8 -0.32 8 -1 8 C-1 6.35 -1 4.7 -1 3 C0.32 2.67 1.64 2.34 3 2 C2.01 1.34 1.02 0.68 0 0 Z " fill="#838587" transform="translate(224,128)"/>
<path d="M0 0 C0.66 0.66 1.32 1.32 2 2 C1.67 2.66 1.34 3.32 1 4 C0.34 4 -0.32 4 -1 4 C-1 4.66 -1 5.32 -1 6 C0.32 6.33 1.64 6.66 3 7 C2.67 7.66 2.34 8.32 2 9 C-0.97 8.505 -0.97 8.505 -4 8 C-3.67 5.69 -3.34 3.38 -3 1 C-2.01 0.67 -1.02 0.34 0 0 Z " fill="#F35C35" transform="translate(113,30)"/>
<path d="M0 0 C0.66 0 1.32 0 2 0 C2 0.99 2 1.98 2 3 C2.66 3.33 3.32 3.66 4 4 C-0.62 4.33 -5.24 4.66 -10 5 C-10.33 4.34 -10.66 3.68 -11 3 C-10.34 3 -9.68 3 -9 3 C-9 2.34 -9 1.68 -9 1 C-8.34 1 -7.68 1 -7 1 C-7 1.66 -7 2.32 -7 3 C-4.69 3 -2.38 3 0 3 C0 2.01 0 1.02 0 0 Z " fill="#535453" transform="translate(119,134)"/>
<path d="M0 0 C0.99 0 1.98 0 3 0 C3.33 2.31 3.66 4.62 4 7 C2.35 6.67 0.7 6.34 -1 6 C-1.042721 4.33388095 -1.04063832 2.66617115 -1 1 C-0.67 0.67 -0.34 0.34 0 0 Z " fill="#838386" transform="translate(174,128)"/>
<path d="M0 0 C1.98 0 3.96 0 6 0 C4.68 0.33 3.36 0.66 2 1 C2 1.66 2 2.32 2 3 C3.32 3 4.64 3 6 3 C6 3.66 6 4.32 6 5 C5.38125 5.12375 4.7625 5.2475 4.125 5.375 C1.80879168 5.87197356 1.80879168 5.87197356 0 8 C0 5.36 0 2.72 0 0 Z " fill="#8C8D8F" transform="translate(205,128)"/>
<path d="M0 0 C1.98 0 3.96 0 6 0 C6.33 1.65 6.66 3.3 7 5 C6.34 5 5.68 5 5 5 C4.67 3.68 4.34 2.36 4 1 C3.34 1 2.68 1 2 1 C2 2.65 2 4.3 2 6 C1.01 6.495 1.01 6.495 0 7 C0 4.69 0 2.38 0 0 Z " fill="#898A8D" transform="translate(191,128)"/>
<path d="M0 0 C2.74086056 -0.22223194 4.43963721 -0.34781139 6.8125 1.125 C8.49106106 3.77535957 8.20450238 5.93246424 8 9 C6.02 9.99 6.02 9.99 4 11 C4.495 10.1028125 4.495 10.1028125 5 9.1875 C6.20787988 6.94613529 6.20787988 6.94613529 6 4 C5.34 3.67 4.68 3.34 4 3 C4 2.34 4 1.68 4 1 C2.68 0.67 1.36 0.34 0 0 Z " fill="#E16643" transform="translate(234,74)"/>
<path d="M0 0 C1.67542976 0.28604898 3.34385343 0.61781233 5 1 C4.67 2.32 4.34 3.64 4 5 C2 5 0 5 -2 5 C-1.125 1.125 -1.125 1.125 0 0 Z " fill="#7F8184" transform="translate(183,130)"/>
<path d="M0 0 C1.2065625 0.0309375 1.2065625 0.0309375 2.4375 0.0625 C-1.00865385 4.8625 -1.00865385 4.8625 -3.8125 5.875 C-4.67875 5.9678125 -4.67875 5.9678125 -5.5625 6.0625 C-3.26136364 0.07954545 -3.26136364 0.07954545 0 0 Z " fill="#E05527" transform="translate(133.5625,96.9375)"/>
<path d="M0 0 C0.66 0 1.32 0 2 0 C2.33 1.32 2.66 2.64 3 4 C2.01 4.33 1.02 4.66 0 5 C-0.33 5.99 -0.66 6.98 -1 8 C-2.2077558 4.37673261 -1.54311128 3.35853631 0 0 Z " fill="#F95F25" transform="translate(136,104)"/>
<path d="M0 0 C2.97 0.495 2.97 0.495 6 1 C6.33 1.99 6.66 2.98 7 4 C5.02 4 3.04 4 1 4 C0.67 2.68 0.34 1.36 0 0 Z " fill="#464945" transform="translate(101,134)"/>
<path d="M0 0 C0.33 0.66 0.66 1.32 1 2 C-0.65 3.65 -2.3 5.3 -4 7 C-4 5.02 -4 3.04 -4 1 C-2.68 0.67 -1.36 0.34 0 0 Z " fill="#E25E34" transform="translate(129,57)"/>
<path d="M0 0 C0.99 0.495 0.99 0.495 2 1 C2 1.66 2 2.32 2 3 C3.32 3 4.64 3 6 3 C6 3.66 6 4.32 6 5 C4.02 5.33 2.04 5.66 0 6 C0 4.02 0 2.04 0 0 Z " fill="#686C6C" transform="translate(101,128)"/>
<path d="M0 0 C-0.1875 1.8125 -0.1875 1.8125 -1 4 C-3.5625 5.75 -3.5625 5.75 -6 7 C-5.37162381 3.35541809 -4.14650034 0 0 0 Z " fill="#D55224" transform="translate(138,98)"/>
<path d="M0 0 C0.66 0.66 1.32 1.32 2 2 C1.3125 3.9375 1.3125 3.9375 0 6 C-2.5 6.875 -2.5 6.875 -5 7 C-5.66 6.34 -6.32 5.68 -7 5 C-5.824375 4.87625 -5.824375 4.87625 -4.625 4.75 C-1.85250896 4.27193661 -1.85250896 4.27193661 -0.6875 1.9375 C-0.460625 1.298125 -0.23375 0.65875 0 0 Z " fill="#F15F36" transform="translate(108,61)"/>
<path d="M0 0 C-0.66 1.32 -1.32 2.64 -2 4 C-3.65 4 -5.3 4 -7 4 C-6.67 3.01 -6.34 2.02 -6 1 C-3.90006779 0.25486277 -2.22568901 0 0 0 Z " fill="#6D6E71" transform="translate(198,133)"/>
<path d="M0 0 C1.52299523 2.93720508 2.80100302 5.9168649 4 9 C3.01 9.495 3.01 9.495 2 10 C1.01 7.03 0.02 4.06 -1 1 C-0.67 0.67 -0.34 0.34 0 0 Z " fill="#F46134" transform="translate(121,56)"/>
<path d="M0 0 C2.475 0.495 2.475 0.495 5 1 C5 3.31 5 5.62 5 8 C2.27573689 5.64722731 1.1858237 3.37503669 0 0 Z " fill="#DD5B3A" transform="translate(215,42)"/>
</svg>
